<?xml version="1.0" encoding="UTF-8" standalone="no"?>
<!-- Created with Inkscape (http://www.inkscape.org/) -->

<svg
   xmlns:dc="http://purl.org/dc/elements/1.1/"
   xmlns:cc="http://creativecommons.org/ns#"
   xmlns:rdf="http://www.w3.org/1999/02/22-rdf-syntax-ns#"
   xmlns:svg="http://www.w3.org/2000/svg"
   xmlns="http://www.w3.org/2000/svg"
   xmlns:sodipodi="http://sodipodi.sourceforge.net/DTD/sodipodi-0.dtd"
   xmlns:inkscape="http://www.inkscape.org/namespaces/inkscape"
   width="140.49612mm"
   height="48.657803mm"
   viewBox="0 0 497.82091 172.40954"
   id="svg2"
   version="1.1"
   inkscape:version="0.91 r13725"
   sodipodi:docname="OpenUpgrade.svg"
   inkscape:export-filename="C:\Users\David\Desktop\OpenUpgrade.png"
   inkscape:export-xdpi="150"
   inkscape:export-ydpi="150">
  <defs
     id="defs4" />
  <sodipodi:namedview
     id="base"
     pagecolor="#ffffff"
     bordercolor="#666666"
     borderopacity="1.0"
     inkscape:pageopacity="0.0"
     inkscape:pageshadow="2"
     inkscape:zoom="1.979899"
     inkscape:cx="222.182"
     inkscape:cy="107.83951"
     inkscape:document-units="px"
     inkscape:current-layer="g3520"
     showgrid="false"
     showguides="false"
     inkscape:window-width="1280"
     inkscape:window-height="697"
     inkscape:window-x="-8"
     inkscape:window-y="-8"
     inkscape:window-maximized="1"
     fit-margin-left="15"
     fit-margin-top="15"
     fit-margin-right="15"
     fit-margin-bottom="15" />
  <metadata
     id="metadata7">
    <rdf:RDF>
      <cc:Work
         rdf:about="">
        <dc:format>image/svg+xml</dc:format>
        <dc:type
           rdf:resource="http://purl.org/dc/dcmitype/StillImage" />
        <dc:title></dc:title>
      </cc:Work>
    </rdf:RDF>
  </metadata>
  <g
     inkscape:label="Layer 1"
     inkscape:groupmode="layer"
     id="layer1"
     transform="translate(-199.70409,-446.96773)">
    <g
       id="g3539">
      <g
         id="g3357"
         transform="matrix(0.36590234,0,0,0.36590234,476.78486,407.17249)">
        <path
           sodipodi:nodetypes="cssssssssscssssssssssscsssssssssssscssscssssssssscsscccszccsssssccsccscsssscssccsssscsscc"
           inkscape:connector-curvature="0"
           id="path3353"
           d="m 312.6493,392.0908 c 2.83213,-0.69021 6.629,-2.41885 8.4375,-3.84141 2.83878,-2.23298 3.29875,-3.55644 3.36546,-9.68327 0.0425,-3.90322 0.49248,-11.24386 0.99994,-16.31253 0.85199,-8.51007 1.2754,-9.53904 5.52936,-13.4375 2.53369,-2.32196 5.89307,-4.22174 7.46527,-4.22174 1.5722,0 4.81483,-1.60558 7.20586,-3.56796 2.39101,-1.96238 6.17543,-4.50808 8.4098,-5.6571 2.78011,-1.42968 4.0625,-2.98654 4.0625,-4.93204 0,-4.52009 2.42101,-5.8429 10.69367,-5.8429 l 7.69369,0 6.43131,-6.80017 c 5.7539,-6.0839 6.43133,-7.38443 6.43133,-12.34695 0,-6.02729 2.32986,-9.16531 5.81261,-7.82885 1.35208,0.51884 3.36034,-0.40909 5.66592,-2.61797 2.49086,-2.38639 5.36041,-3.62734 9.48397,-4.10138 5.56041,-0.63921 5.93542,-0.91623 6.29747,-4.65197 0.56799,-5.86078 -1.63796,-12.66309 -6.6028,-20.36056 -2.42395,-3.75806 -4.40717,-7.80299 -4.40717,-8.98873 0,-3.62058 2.42914,-3.90254 3.7475,-0.43498 0.68356,1.79788 3.17459,5.79882 5.53562,8.89098 2.82202,3.69588 4.93122,8.42089 6.15613,13.79097 1.02482,4.49287 2.09187,8.39741 2.37123,8.67675 0.27933,0.27934 3.07916,-1.95582 6.22183,-4.96702 3.52295,-3.37559 8.17314,-6.29174 12.12737,-7.60512 4.24008,-1.40833 7.56592,-3.57461 9.81437,-6.39256 1.87052,-2.3443 4.10408,-4.26238 4.96345,-4.2624 1.98436,-5e-5 1.96091,0.60366 -0.18453,4.75248 -2.50027,4.83501 -6.0306,7.69643 -14.86456,12.04813 -5.91241,2.91253 -8.42116,5.01385 -10.52214,8.81333 -2.52928,4.57406 -2.60046,5.23051 -0.85587,7.89309 2.60845,3.98101 1.2015,9.42167 -3.4482,13.33414 -3.0051,2.52862 -5.10643,3.15879 -10.53311,3.15879 -3.7285,0 -6.77909,0.37245 -6.77909,0.82768 0,0.45522 1.43884,3.28287 3.19741,6.28366 l 3.19743,5.45598 8.45922,-4.62619 c 5.57019,-3.04622 9.23525,-4.3284 10.73141,-3.75426 2.38807,0.91638 2.37924,3.0508 -0.10237,24.75548 l -0.80805,7.06735 5.94035,6.35072 c 5.07978,5.4307 5.6206,6.47342 3.73316,7.19769 -3.33936,1.28144 -16.1873,-12.35834 -14.5572,-15.4544 0.64538,-1.22579 1.57739,-6.86934 2.07113,-12.54121 0.89695,-10.30378 0.15367,-12.37298 -3.05551,-8.50615 -2.73739,3.29835 -13.35604,9.44365 -16.31799,9.44365 -1.60443,0 -3.94925,-0.93405 -5.21073,-2.07567 -4.10075,-3.71113 -4.11175,-0.51944 -0.0267,7.76449 4.3097,8.73963 4.74053,12.74744 2.71317,25.23992 l -1.26646,7.80374 4.71339,6.19991 c 4.02595,5.29566 5.78687,6.51304 12.07367,8.34695 4.67453,1.3636 7.56483,2.92927 7.92086,4.29074 -0.912,2.05151 -4.53833,1.77609 -6.65597,1.03044 -3.36885,-1.18622 -7.20657,-2.20036 -8.52827,-2.25365 -1.32171,-0.0532 -5.45023,-3.21785 -9.17449,-7.03236 0,0 -4.2694,-3.67207 -5.3428,-7.11407 -1.0734,-3.442 0.57774,-11.59168 0.57774,-11.59168 l 2.00631,-11.77026 -3.89,-8.23319 c -2.1395,-4.52826 -4.4698,-8.03993 -5.17844,-7.80372 -0.70865,0.23622 -2.33652,3.2391 -3.61751,6.67307 -1.71071,4.58594 -3.9086,7.45212 -8.27839,10.79554 -3.27212,2.50357 -7.91807,6.59011 -10.32432,9.0812 -4.2079,4.35626 -4.4006,4.96836 -5.04536,16.02642 -0.63823,17.87978 -3.25777,16.53894 -12.12381,30.63173 -5.3334,4.55646 -1.16917,7.77991 -2.17798,15.09692 -0.56798,4.11959 0.95429,8.6892 -3.68856,5.32447 -1.16757,-5.24877 -2.62323,-1.24882 -1.81559,-21.65373 4.04394,-6.1108 0,0 7.66433,-11.82752 4.2394,-6.54219 5.93788,-8.38919 5.95403,-12.73482 0.01,-2.52447 0.35625,-5.85557 0.7708,-7.40244 1.09952,-4.10284 -1.18997,-3.53365 -8.75221,2.17589 -7.85244,5.92866 -13.21575,7.40293 -16.173,4.44568 -3.41808,-3.41807 -4.61991,-10.53145 -3.49467,-20.68407 0.57148,-5.15625 0.81934,-9.625 0.55081,-9.93056 -0.26853,-0.30555 -1.59467,0.55088 -2.94697,1.90317 -1.97047,1.97049 -2.6,4.81122 -3.17014,14.30556 -0.99859,16.62875 -1.03249,16.71763 -8.10827,21.25814 -16.01977,8.17989 -28.32779,7.00477 -9.16915,-1.28979 z m 69.79443,-43.43395 c 0.62897,-2.08183 0.34073,-2.8125 -1.1095,-2.8125 -1.37082,0 -1.95924,1.20135 -1.95924,4 0,4.27069 1.60764,3.64859 3.06874,-1.1875 z m -11.50624,-14.6875 c 0.17187,-0.6875 -1.375,-1.40336 -3.4375,-1.5908 -3.58624,-0.32592 -3.64304,-0.25695 -1.30055,1.57935 2.60783,2.0443 4.22886,2.04821 4.73805,0.0115 z"
           style="fill:#a09f9f" />
        <path
           sodipodi:nodetypes="cssccsssscssscscsscscsscccscsscsssssssssssscssssscssssssssccssssscscccccssssscsscssss"
           inkscape:connector-curvature="0"
           id="path3349"
           d="m 351.38096,428.85994 c -1.09536,-2.85448 -0.92731,-5.51559 0.3483,-5.51559 1.4152,0 2.62064,6.11796 1.35908,6.89765 -0.52326,0.3234 -1.29158,-0.29854 -1.70738,-1.38206 z m -0.70072,-12.20932 c -0.0304,-1.27528 1.63225,-4.81911 3.69475,-7.87516 2.0625,-3.05604 3.75,-5.89702 3.75,-6.31329 0,-0.41626 1.53569,-2.77023 3.41264,-5.23103 1.95547,-2.56377 3.75224,-6.88403 4.20797,-10.11799 l 0.79535,-5.6438 0.16703,5.12632 c 0.16981,5.21237 -3.92338,14.72955 -8.54736,19.87368 -1.23597,1.375 -3.41225,4.75 -4.83618,7.5 -1.6222,3.13291 -2.60959,4.13415 -2.6442,2.68127 z m -43.18025,-20.80627 c 0.4249,-0.6875 2.00498,-1.24139 3.51127,-1.23086 2.22654,0.0156 2.38808,0.24575 0.86373,1.23086 -2.46265,1.59149 -5.35859,1.59149 -4.375,0 z m 102.76644,-10.56522 c -3.74365,-3.53636 -5.8813,-6.61236 -5.86364,-8.4375 l 0.0278,-2.87228 2.50131,3.125 c 3.1612,3.94942 9.96261,13.75 9.54224,13.75 -0.17395,0 -2.96741,-2.50435 -6.2077,-5.56522 z m -70.18975,-0.16167 c -1.07137,-1.07136 -2.29143,-3.31651 -2.71125,-4.98922 -0.84708,-3.37502 0.0761,-19.23709 1.43161,-24.59639 1.14537,-4.52872 -0.71423,-4.42161 -6.15385,0.35445 -4.43039,3.88993 -6.95895,3.26864 -4.60419,-1.13129 2.02633,-3.7862 8.76974,-8.90951 11.7444,-8.92279 1.49413,-0.007 5.11029,-1.91522 8.03593,-4.24121 2.92563,-2.32599 6.72251,-4.58125 8.4375,-5.01168 2.3891,-0.59963 3.11816,-1.59538 3.11816,-4.2588 0,-5.16256 2.15114,-6.47618 10.6052,-6.47618 7.52179,0 7.67597,-0.072 14.05802,-6.5625 5.81209,-5.91086 6.49052,-7.18311 6.8323,-12.8125 0.3212,-5.29018 0.7634,-6.25 2.87948,-6.25 1.80956,0 2.61096,0.96726 2.90179,3.50239 0.25413,2.21532 1.40252,3.88517 3.125,4.54404 3.69297,1.41261 6.07551,4.39503 10.29819,12.89107 2.30746,4.64265 4.34523,7.1875 5.75533,7.1875 1.20068,0 5.43911,-1.91715 9.41876,-4.26034 3.97964,-2.34318 7.66102,-3.99748 8.18083,-3.67623 1.61084,0.99556 1.03995,2.93657 -0.8637,2.93657 -0.99485,0 -5.52464,2.8125 -10.0662,6.25 -4.54156,3.4375 -8.9955,6.25 -9.89763,6.25 -0.90212,0 -3.1169,-1.16155 -4.92173,-2.58123 -6.31862,-4.97022 -7.69148,0.19281 -2.68064,10.08123 1.71875,3.39179 3.09734,7.45121 3.06352,9.02094 -0.0424,1.96904 -1.39008,0.26608 -4.34601,-5.49176 -2.3565,-4.59019 -4.91682,-8.73658 -5.68961,-9.21419 -2.06733,-1.27768 -5.54095,3.06573 -7.22606,9.03545 -1.05508,3.73771 -2.68142,5.97103 -5.71227,7.8442 -2.33048,1.44032 -7.64413,6.26074 -11.80812,10.71206 -4.16399,4.45131 -8.07916,8.0933 -8.70039,8.0933 -0.62121,0 -3.96486,2.25756 -7.43032,5.0168 -3.46546,2.75924 -8.28653,5.84647 -10.71348,6.86051 -3.9329,1.64328 -4.62444,1.63194 -6.36057,-0.10425 z m 43.13597,-32.62868 c 1.7904,-4.70912 0.97725,-8.4147 -1.96266,-8.94395 -4.05274,-0.72958 -8.125,-5.31285 -8.125,-9.14456 0,-2.69885 -0.72036,-3.68909 -3.1222,-4.29191 -8.0193,-2.01272 -9.68034,4.2559 -1.934,7.29874 5.77147,2.2671 10.04462,8.37817 10.05152,14.37475 0.006,5.09032 3.25433,5.54128 5.09234,0.70693 z m 22.65603,17.73057 c -0.0255,-2.0625 0.23382,-3.05758 0.57624,-2.21129 0.3424,0.84629 0.36323,2.53379 0.0464,3.75 -0.31692,1.21621 -0.59707,0.52379 -0.62255,-1.53871 z m 2.25631,-60 c -1.61469,-1.71875 -3.89386,-3.125 -5.06484,-3.125 -3.99395,0 -5.03546,-2.91033 -2.70537,-7.55973 2.46643,-4.92146 6.62942,-7.39547 12.48865,-7.42184 3.28313,-0.0148 4.37157,-0.69889 5.49853,-3.45593 l 1.40509,-3.4375 1.30528,3.4375 c 1.50287,3.95792 4.06481,4.5068 5.14533,1.10235 0.82458,-2.59801 5.68002,-7.4521 5.67265,-5.67108 -0.002,0.62217 -1.18302,3.06413 -2.62322,5.42658 -2.36643,3.88176 -2.46283,4.7672 -1.00123,9.19591 1.3664,4.14021 1.33117,5.41041 -0.22705,8.18657 -3.89442,6.9384 -14.78759,8.7575 -19.89382,3.32217 z"
           style="fill:#892ca0" />
      </g>
      <g
         transform="translate(-0.50507627,0.03242067)"
         id="g3520">
        <g
           style="font-style:normal;font-weight:normal;font-size:37.16291428px;line-height:125%;font-family:sans-serif;letter-spacing:0px;word-spacing:0px;fill:#b3b3b3;fill-opacity:1;stroke:none;stroke-width:1px;stroke-linecap:butt;stroke-linejoin:miter;stroke-opacity:1"
           id="text3361">
          <path
             d="m 270.71084,502.27681 q 7.57594,0 12.67949,5.05818 5.10355,5.05819 5.10355,12.45267 0,7.32642 -5.10355,12.42997 -5.08087,5.10355 -12.4073,5.10355 -7.41716,0 -12.52071,-5.08086 -5.10355,-5.08087 -5.10355,-12.29389 0,-4.80868 2.31361,-8.9142 2.33629,-4.10552 6.35108,-6.41913 4.0148,-2.33629 8.68738,-2.33629 z m 0.15878,3.26627 q -3.69724,0 -7.00888,1.92801 -3.31163,1.92801 -5.17159,5.19428 -1.85997,3.26627 -1.85997,7.28106 0,5.9428 4.10553,10.04832 4.1282,4.08284 9.93491,4.08284 3.87869,0 7.16765,-1.88264 3.31164,-1.88264 5.14891,-5.14891 1.85996,-3.26627 1.85996,-7.25838 0,-3.96943 -1.85996,-7.16766 -1.83727,-3.2209 -5.19428,-5.14891 -3.357,-1.92801 -7.12228,-1.92801 z"
             style="font-style:normal;font-variant:normal;font-weight:normal;font-stretch:normal;font-size:46.4536438px;font-family:'Century Gothic';-inkscape-font-specification:'Century Gothic';fill:#b3b3b3"
             id="path3563" />
          <path
             d="m 294.70886,511.80344 3.15286,0 0,4.53648 q 1.88265,-2.58579 4.33235,-3.87869 2.4497,-1.2929 5.46647,-1.2929 5.26233,0 9.00493,3.78796 3.7426,3.78797 3.7426,9.11835 0,5.44378 -3.71992,9.25443 -3.69724,3.78797 -8.93688,3.78797 -2.94872,0 -5.4211,-1.22485 -2.47239,-1.22485 -4.46845,-3.65187 l 0,13.26923 -3.15286,0 0,-33.70611 z m 12.70217,2.42702 q -4.1282,0 -6.96351,2.88067 -2.81262,2.88067 -2.81262,7.16765 0,2.81262 1.24753,5.05818 1.27022,2.24557 3.60651,3.56115 2.35898,1.31558 4.96746,1.31558 2.56311,0 4.80868,-1.31558 2.26824,-1.33827 3.6065,-3.71992 1.33827,-2.38166 1.33827,-4.99014 0,-2.63116 -1.33827,-4.99014 -1.31558,-2.35897 -3.56114,-3.65187 -2.24556,-1.31558 -4.89941,-1.31558 z"
             style="font-style:normal;font-variant:normal;font-weight:normal;font-stretch:normal;font-size:46.4536438px;font-family:'Century Gothic';-inkscape-font-specification:'Century Gothic';fill:#b3b3b3"
             id="path3565" />
          <path
             d="m 347.10531,528.29357 2.67652,1.40631 q -1.31558,2.5858 -3.03944,4.17357 -1.72387,1.58777 -3.8787,2.42702 -2.15483,0.81657 -4.87673,0.81657 -6.03353,0 -9.43589,-3.94674 -3.40237,-3.96943 -3.40237,-8.95957 0,-4.69526 2.88067,-8.36982 3.65187,-4.67258 9.77613,-4.67258 6.30572,0 10.07101,4.78599 2.67653,3.37969 2.72189,8.43787 l -22.18343,0 q 0.0907,4.30967 2.74458,7.07692 2.65384,2.74458 6.55522,2.74458 1.88265,0 3.65188,-0.65779 1.79191,-0.65779 3.03944,-1.74655 1.24754,-1.08876 2.69922,-3.51578 z m 0,-6.64595 q -0.63511,-2.54044 -1.85996,-4.06016 -1.20217,-1.51973 -3.19823,-2.44971 -1.99605,-0.92998 -4.19625,-0.92998 -3.62919,0 -6.23767,2.3363 -1.90533,1.70118 -2.88067,5.10355 l 18.37278,0 z"
             style="font-style:normal;font-variant:normal;font-weight:normal;font-stretch:normal;font-size:46.4536438px;font-family:'Century Gothic';-inkscape-font-specification:'Century Gothic';fill:#b3b3b3"
             id="path3567" />
          <path
             d="m 356.54121,511.80344 3.17554,0 0,4.42307 q 1.90533,-2.54043 4.21893,-3.78797 2.31361,-1.27021 5.03551,-1.27021 2.76725,0 4.8994,1.40631 2.15484,1.40631 3.17555,3.78797 1.02071,2.38165 1.02071,7.41716 l 0,12.70216 -3.15286,0 0,-11.77218 q 0,-4.2643 -0.36292,-5.6933 -0.56706,-2.4497 -2.13215,-3.67455 -1.56509,-1.24754 -4.08284,-1.24754 -2.88067,0 -5.1716,1.90533 -2.26824,1.90532 -2.99408,4.71795 -0.45365,1.83727 -0.45365,6.714 l 0,9.05029 -3.17554,0 0,-24.67849 z"
             style="font-style:normal;font-variant:normal;font-weight:normal;font-stretch:normal;font-size:46.4536438px;font-family:'Century Gothic';-inkscape-font-specification:'Century Gothic';fill:#b3b3b3"
             id="path3569" />
          <path
             d="m 385.48401,503.11606 3.33432,0 0,20.14201 q 0,3.58383 0.13609,4.46844 0.24951,1.97337 1.15681,3.31164 0.9073,1.31558 2.78994,2.22288 1.88264,0.88461 3.78797,0.88461 1.65581,0 3.17554,-0.70315 1.51972,-0.70316 2.54043,-1.95069 1.02071,-1.24754 1.49704,-3.01677 0.34024,-1.27022 0.34024,-5.21696 l 0,-20.14201 3.33432,0 0,20.14201 q 0,4.46844 -0.88462,7.2357 -0.86193,2.74457 -3.49309,4.78599 -2.60848,2.04142 -6.3284,2.04142 -4.03748,0 -6.91815,-1.928 -2.88067,-1.92801 -3.85601,-5.10355 -0.61243,-1.95069 -0.61243,-7.03156 l 0,-20.14201 z"
             style="font-style:normal;font-variant:normal;font-weight:normal;font-stretch:normal;font-size:46.4536438px;font-family:'Century Gothic';-inkscape-font-specification:'Century Gothic';fill:#b3b3b3"
             id="path3571" />
          <path
             d="m 415.28874,511.80344 3.15286,0 0,4.53648 q 1.88264,-2.58579 4.33234,-3.87869 2.44971,-1.2929 5.46647,-1.2929 5.26233,0 9.00493,3.78796 3.7426,3.78797 3.7426,9.11835 0,5.44378 -3.71992,9.25443 -3.69723,3.78797 -8.93688,3.78797 -2.94872,0 -5.4211,-1.22485 -2.47239,-1.22485 -4.46844,-3.65187 l 0,13.26923 -3.15286,0 0,-33.70611 z m 12.70216,2.42702 q -4.1282,0 -6.96351,2.88067 -2.81262,2.88067 -2.81262,7.16765 0,2.81262 1.24754,5.05818 1.27021,2.24557 3.6065,3.56115 2.35898,1.31558 4.96746,1.31558 2.56312,0 4.80868,-1.31558 2.26824,-1.33827 3.60651,-3.71992 1.33826,-2.38166 1.33826,-4.99014 0,-2.63116 -1.33826,-4.99014 -1.31559,-2.35897 -3.56115,-3.65187 -2.24556,-1.31558 -4.89941,-1.31558 z"
             style="font-style:normal;font-variant:normal;font-weight:normal;font-stretch:normal;font-size:46.4536438px;font-family:'Century Gothic';-inkscape-font-specification:'Century Gothic';fill:#b3b3b3"
             id="path3573" />
          <path
             d="m 468.16151,511.80344 3.19822,0 0,19.66567 q 0,5.19428 -0.90729,7.59862 -1.24754,3.40237 -4.33235,5.23965 -3.08481,1.83727 -7.41716,1.83727 -3.17554,0 -5.71598,-0.90729 -2.51775,-0.88462 -4.10552,-2.40434 -1.58777,-1.49704 -2.92603,-4.4004 l 3.44773,0 q 1.40631,2.44971 3.62919,3.62919 2.22288,1.17949 5.51183,1.17949 3.24359,0 5.46647,-1.22485 2.24556,-1.20217 3.19823,-3.03945 0.95266,-1.83728 0.95266,-5.92012 l 0,-1.27021 q -1.79191,2.26824 -4.37771,3.49309 -2.5858,1.20217 -5.48915,1.20217 -3.40237,0 -6.39645,-1.6785 -2.99409,-1.70118 -4.62722,-4.55917 -1.63314,-2.85799 -1.63314,-6.28304 0,-3.42504 1.70119,-6.37376 1.70118,-2.9714 4.69526,-4.69527 3.01677,-1.72386 6.35109,-1.72386 2.76725,0 5.14891,1.1568 2.40434,1.13412 4.62722,3.76529 l 0,-4.28698 z m -9.36785,2.42702 q -2.69921,0 -5.01282,1.31558 -2.31361,1.2929 -3.62919,3.60651 -1.31558,2.29092 -1.31558,4.96745 0,4.06016 2.72189,6.71401 2.72189,2.65384 7.05424,2.65384 4.37771,0 7.03156,-2.63116 2.67653,-2.63117 2.67653,-6.91815 0,-2.78994 -1.22486,-4.96745 -1.22485,-2.2002 -3.47041,-3.47042 -2.24556,-1.27021 -4.83136,-1.27021 z"
             style="font-style:normal;font-variant:normal;font-weight:normal;font-stretch:normal;font-size:46.4536438px;font-family:'Century Gothic';-inkscape-font-specification:'Century Gothic';fill:#b3b3b3"
             id="path3575" />
          <path
             d="m 477.00766,511.80344 3.24359,0 0,3.6065 q 1.45168,-2.13215 3.06213,-3.17554 1.61046,-1.06607 3.357,-1.06607 1.31559,0 2.81263,0.83925 l -1.65582,2.67653 q -0.99803,-0.43097 -1.6785,-0.43097 -1.58777,0 -3.06213,1.31558 -1.47436,1.2929 -2.24556,4.03748 -0.58975,2.10946 -0.58975,8.52859 l 0,8.34714 -3.24359,0 0,-24.67849 z"
             style="font-style:normal;font-variant:normal;font-weight:normal;font-stretch:normal;font-size:46.4536438px;font-family:'Century Gothic';-inkscape-font-specification:'Century Gothic';fill:#b3b3b3"
             id="path3577" />
          <path
             d="m 516.76998,511.80344 0,24.67849 -3.13017,0 0,-4.24161 q -1.99606,2.42702 -4.49113,3.65187 -2.47238,1.22485 -5.4211,1.22485 -5.23965,0 -8.95957,-3.78797 -3.69724,-3.81065 -3.69724,-9.25443 0,-5.33038 3.74261,-9.11835 3.7426,-3.78796 9.00493,-3.78796 3.03944,0 5.48915,1.2929 2.47239,1.2929 4.33235,3.87869 l 0,-4.53648 3.13017,0 z m -12.70217,2.42702 q -2.65384,0 -4.8994,1.31558 -2.24557,1.2929 -3.58383,3.65187 -1.31558,2.35898 -1.31558,4.99014 0,2.60848 1.33826,4.99014 1.33827,2.38165 3.58383,3.71992 2.26824,1.31558 4.85404,1.31558 2.60848,0 4.94477,-1.31558 2.3363,-1.31558 3.58383,-3.56115 1.27022,-2.24556 1.27022,-5.05818 0,-4.28698 -2.83531,-7.16765 -2.81262,-2.88067 -6.94083,-2.88067 z"
             style="font-style:normal;font-variant:normal;font-weight:normal;font-stretch:normal;font-size:46.4536438px;font-family:'Century Gothic';-inkscape-font-specification:'Century Gothic';fill:#b3b3b3"
             id="path3579" />
          <path
             d="m 548.57078,502.27681 0,34.20512 -3.13018,0 0,-4.24161 q -1.99605,2.42702 -4.49112,3.65187 -2.47239,1.22485 -5.42111,1.22485 -5.23964,0 -8.95956,-3.78797 -3.69724,-3.81065 -3.69724,-9.25443 0,-5.33038 3.7426,-9.11835 3.74261,-3.78796 9.00493,-3.78796 3.03945,0 5.48916,1.2929 2.47238,1.2929 4.33234,3.87869 l 0,-14.06311 3.13018,0 z m -12.70217,11.95365 q -2.65384,0 -4.89941,1.31558 -2.24556,1.2929 -3.58382,3.65187 -1.31558,2.35898 -1.31558,4.99014 0,2.60848 1.33826,4.99014 1.33826,2.38165 3.58383,3.71992 2.26824,1.31558 4.85404,1.31558 2.60848,0 4.94477,-1.31558 2.33629,-1.31558 3.58383,-3.56115 1.27021,-2.24556 1.27021,-5.05818 0,-4.28698 -2.8353,-7.16765 -2.81262,-2.88067 -6.94083,-2.88067 z"
             style="font-style:normal;font-variant:normal;font-weight:normal;font-stretch:normal;font-size:46.4536438px;font-family:'Century Gothic';-inkscape-font-specification:'Century Gothic';fill:#b3b3b3"
             id="path3581" />
          <path
             d="m 576.56089,528.29357 2.67653,1.40631 q -1.31558,2.5858 -3.03944,4.17357 -1.72387,1.58777 -3.8787,2.42702 -2.15483,0.81657 -4.87673,0.81657 -6.03353,0 -9.43589,-3.94674 -3.40237,-3.96943 -3.40237,-8.95957 0,-4.69526 2.88067,-8.36982 3.65187,-4.67258 9.77613,-4.67258 6.30572,0 10.07101,4.78599 2.67653,3.37969 2.72189,8.43787 l -22.18343,0 q 0.0907,4.30967 2.74458,7.07692 2.65384,2.74458 6.55522,2.74458 1.88265,0 3.65188,-0.65779 1.79191,-0.65779 3.03944,-1.74655 1.24754,-1.08876 2.69921,-3.51578 z m 0,-6.64595 q -0.6351,-2.54044 -1.85996,-4.06016 -1.20217,-1.51973 -3.19822,-2.44971 -1.99606,-0.92998 -4.19625,-0.92998 -3.62919,0 -6.23767,2.3363 -1.90533,1.70118 -2.88067,5.10355 l 18.37277,0 z"
             style="font-style:normal;font-variant:normal;font-weight:normal;font-stretch:normal;font-size:46.4536438px;font-family:'Century Gothic';-inkscape-font-specification:'Century Gothic';fill:#b3b3b3"
             id="path3583" />
        </g>
        <g
           id="g3504"
           transform="matrix(0.82036215,0,0,0.82036215,68.971038,101.26316)">
          <g
             style="font-style:normal;font-weight:normal;font-size:39.77030182px;line-height:125%;font-family:sans-serif;letter-spacing:0px;word-spacing:0px;fill:#b3b3b3;fill-opacity:1;stroke:none;stroke-width:1px;stroke-linecap:butt;stroke-linejoin:miter;stroke-opacity:1"
             id="text3361-7">
            <path
               d="m 383.94491,550.53962 0,-1.12085 6.32534,0 0,1.12085 -2.5709,0 0,10.40899 -1.17571,0 0,-10.40899 -2.57873,0 z"
               style="font-style:normal;font-variant:normal;font-weight:normal;font-stretch:normal;font-size:16.05241585px;font-family:'Century Gothic';-inkscape-font-specification:'Century Gothic';fill:#b3b3b3"
               id="path3586" />
            <path
               d="m 391.71246,549.12876 1.09733,0 0,4.82043 q 0.66624,-0.87787 1.46572,-1.30896 0.79949,-0.43893 1.73222,-0.43893 0.95625,0 1.69303,0.48596 0.74462,0.48596 1.09733,1.30896 0.35272,0.81516 0.35272,2.56306 l 0,4.38933 -1.09734,0 0,-4.06797 q 0,-1.47356 -0.11757,-1.96736 -0.20379,-0.84652 -0.74462,-1.26977 -0.53299,-0.4311 -1.40301,-0.4311 -0.99544,0 -1.78709,0.6584 -0.78381,0.6584 -1.03463,1.63032 -0.15676,0.62705 -0.15676,2.32008 l 0,3.1274 -1.09733,0 0,-11.81985 z"
               style="font-style:normal;font-variant:normal;font-weight:normal;font-stretch:normal;font-size:16.05241585px;font-family:'Century Gothic';-inkscape-font-specification:'Century Gothic';fill:#b3b3b3"
               id="path3588" />
            <path
               d="m 408.67409,558.11906 0.9249,0.48596 q -0.45461,0.89354 -1.05031,1.44221 -0.59569,0.54866 -1.34031,0.83867 -0.74462,0.28218 -1.68519,0.28218 -2.08494,0 -3.26065,-1.36383 -1.17571,-1.37167 -1.17571,-3.09605 0,-1.62249 0.99543,-2.89226 1.26194,-1.61464 3.37822,-1.61464 2.17899,0 3.48012,1.65383 0.92489,1.16788 0.94057,2.91577 l -7.66566,0 q 0.0313,1.48924 0.94841,2.44549 0.91706,0.94841 2.26521,0.94841 0.65056,0 1.26193,-0.22731 0.61921,-0.2273 1.05031,-0.60353 0.43109,-0.37623 0.93273,-1.2149 z m 0,-2.29656 q -0.21947,-0.87787 -0.64272,-1.40302 -0.41542,-0.52516 -1.10517,-0.84652 -0.68976,-0.32136 -1.45005,-0.32136 -1.2541,0 -2.15548,0.80732 -0.6584,0.58786 -0.99544,1.76358 l 6.34886,0 z"
               style="font-style:normal;font-variant:normal;font-weight:normal;font-stretch:normal;font-size:16.05241585px;font-family:'Century Gothic';-inkscape-font-specification:'Century Gothic';fill:#b3b3b3"
               id="path3590" />
            <path
               d="m 462.12989,549.12876 q 2.61792,0 4.3815,1.7479 1.76357,1.74789 1.76357,4.30311 0,2.53171 -1.76357,4.29528 -1.75574,1.76357 -4.28744,1.76357 -2.56306,0 -4.32663,-1.75574 -1.76357,-1.75573 -1.76357,-4.24824 0,-1.66168 0.79948,-3.08037 0.80733,-1.4187 2.19467,-2.21818 1.38734,-0.80733 3.00199,-0.80733 z m 0.0549,1.12869 q -1.27761,0 -2.42197,0.66624 -1.14437,0.66623 -1.78709,1.79492 -0.64272,1.12869 -0.64272,2.51603 0,2.05358 1.41869,3.47227 1.42654,1.41086 3.43309,1.41086 1.34031,0 2.47684,-0.65056 1.14436,-0.65056 1.77924,-1.77925 0.64273,-1.12868 0.64273,-2.50819 0,-1.37166 -0.64273,-2.47684 -0.63488,-1.11301 -1.79492,-1.77924 -1.16004,-0.66624 -2.46116,-0.66624 z"
               style="font-style:normal;font-variant:normal;font-weight:normal;font-stretch:normal;font-size:16.05241585px;font-family:'Century Gothic';-inkscape-font-specification:'Century Gothic';fill:#b3b3b3"
               id="path3592" />
            <path
               d="m 478.91909,549.12876 0,11.81985 -1.08166,0 0,-1.46573 q -0.68975,0.83868 -1.55194,1.26194 -0.85436,0.42326 -1.87331,0.42326 -1.8106,0 -3.09604,-1.30897 -1.27761,-1.3168 -1.27761,-3.19794 0,-1.84195 1.29328,-3.15091 1.29329,-1.30896 3.11172,-1.30896 1.05031,0 1.89682,0.44677 0.85436,0.44677 1.49708,1.34031 l 0,-4.85962 1.08166,0 z m -4.38934,4.13068 q -0.91705,0 -1.69302,0.45461 -0.77598,0.44677 -1.23842,1.26193 -0.45461,0.81516 -0.45461,1.72438 0,0.90138 0.46244,1.72438 0.46245,0.823 1.23842,1.28545 0.78381,0.45461 1.67736,0.45461 0.90138,0 1.7087,-0.45461 0.80732,-0.45461 1.23842,-1.23058 0.43893,-0.77597 0.43893,-1.7479 0,-1.4814 -0.97976,-2.47683 -0.97192,-0.99544 -2.39846,-0.99544 z"
               style="font-style:normal;font-variant:normal;font-weight:normal;font-stretch:normal;font-size:16.05241585px;font-family:'Century Gothic';-inkscape-font-specification:'Century Gothic';fill:#b3b3b3"
               id="path3594" />
            <path
               d="m 485.44822,552.2013 q 1.96736,0 3.26065,1.42653 1.17571,1.30112 1.17571,3.08037 0,1.78709 -1.24626,3.1274 -1.23842,1.33248 -3.1901,1.33248 -1.95952,0 -3.20578,-1.33248 -1.23842,-1.34031 -1.23842,-3.1274 0,-1.77141 1.17571,-3.07253 1.29329,-1.43437 3.26849,-1.43437 z m 0,1.07381 q -1.36383,0 -2.34359,1.01112 -0.97976,1.01111 -0.97976,2.44548 0,0.9249 0.44677,1.72438 0.44677,0.79949 1.20706,1.23842 0.7603,0.4311 1.66952,0.4311 0.90922,0 1.66951,-0.4311 0.7603,-0.43893 1.20707,-1.23842 0.44677,-0.79948 0.44677,-1.72438 0,-1.43437 -0.9876,-2.44548 -0.97976,-1.01112 -2.33575,-1.01112 z"
               style="font-style:normal;font-variant:normal;font-weight:normal;font-stretch:normal;font-size:16.05241585px;font-family:'Century Gothic';-inkscape-font-specification:'Century Gothic';fill:#b3b3b3"
               id="path3596" />
            <path
               d="m 495.95126,552.2013 q 1.96736,0 3.26065,1.42653 1.17571,1.30112 1.17571,3.08037 0,1.78709 -1.24625,3.1274 -1.23842,1.33248 -3.19011,1.33248 -1.95952,0 -3.20578,-1.33248 -1.23842,-1.34031 -1.23842,-3.1274 0,-1.77141 1.17572,-3.07253 1.29328,-1.43437 3.26848,-1.43437 z m 0,1.07381 q -1.36383,0 -2.34359,1.01112 -0.97976,1.01111 -0.97976,2.44548 0,0.9249 0.44677,1.72438 0.44677,0.79949 1.20707,1.23842 0.76029,0.4311 1.66951,0.4311 0.90922,0 1.66952,-0.4311 0.76029,-0.43893 1.20706,-1.23842 0.44677,-0.79948 0.44677,-1.72438 0,-1.43437 -0.9876,-2.44548 -0.97976,-1.01112 -2.33575,-1.01112 z"
               style="font-style:normal;font-variant:normal;font-weight:normal;font-stretch:normal;font-size:16.05241585px;font-family:'Century Gothic';-inkscape-font-specification:'Century Gothic';fill:#b3b3b3"
               id="path3598" />
            <path
               d="m 507.0892,549.41877 1.1522,0 0,6.96023 q 0,1.23842 0.047,1.5441 0.0862,0.68192 0.39974,1.14437 0.31352,0.45461 0.96408,0.76813 0.65057,0.30568 1.30897,0.30568 0.57218,0 1.09733,-0.24298 0.52515,-0.24298 0.87787,-0.67407 0.35271,-0.4311 0.51731,-1.04247 0.11757,-0.43893 0.11757,-1.80276 l 0,-6.96023 1.1522,0 0,6.96023 q 0,1.5441 -0.30569,2.50035 -0.29784,0.94841 -1.20706,1.65384 -0.90138,0.70543 -2.18683,0.70543 -1.39518,0 -2.39062,-0.66624 -0.99544,-0.66624 -1.33247,-1.76357 -0.21163,-0.67408 -0.21163,-2.42981 l 0,-6.96023 z"
               style="font-style:normal;font-variant:normal;font-weight:normal;font-stretch:normal;font-size:16.05241585px;font-family:'Century Gothic';-inkscape-font-specification:'Century Gothic';fill:#b3b3b3"
               id="path3600" />
            <path
               d="m 517.38844,552.42076 1.0895,0 0,1.56762 q 0.65056,-0.89354 1.49707,-1.34031 0.84652,-0.44677 1.88898,-0.44677 1.81844,0 3.11173,1.30896 1.29328,1.30896 1.29328,3.15091 0,1.88114 -1.28544,3.19794 -1.27761,1.30897 -3.08821,1.30897 -1.01896,0 -1.87331,-0.42326 -0.85435,-0.42326 -1.5441,-1.26194 l 0,4.58529 -1.0895,0 0,-11.64741 z m 4.38934,0.83868 q -1.42654,0 -2.4063,0.99544 -0.97192,0.99543 -0.97192,2.47683 0,0.97193 0.43109,1.7479 0.43894,0.77597 1.24626,1.23058 0.81516,0.45461 1.71654,0.45461 0.88571,0 1.66168,-0.45461 0.78381,-0.46245 1.24625,-1.28545 0.46245,-0.823 0.46245,-1.72438 0,-0.90922 -0.46245,-1.72438 -0.4546,-0.81516 -1.23058,-1.26193 -0.77597,-0.45461 -1.69302,-0.45461 z"
               style="font-style:normal;font-variant:normal;font-weight:normal;font-stretch:normal;font-size:16.05241585px;font-family:'Century Gothic';-inkscape-font-specification:'Century Gothic';fill:#b3b3b3"
               id="path3602" />
            <path
               d="m 536.82692,549.12876 0,11.81985 -1.08165,0 0,-1.46573 q -0.68976,0.83868 -1.55195,1.26194 -0.85435,0.42326 -1.8733,0.42326 -1.8106,0 -3.09605,-1.30897 -1.27761,-1.3168 -1.27761,-3.19794 0,-1.84195 1.29329,-3.15091 1.29328,-1.30896 3.11172,-1.30896 1.05031,0 1.89682,0.44677 0.85435,0.44677 1.49708,1.34031 l 0,-4.85962 1.08165,0 z m -4.38933,4.13068 q -0.91706,0 -1.69303,0.45461 -0.77597,0.44677 -1.23842,1.26193 -0.45461,0.81516 -0.45461,1.72438 0,0.90138 0.46245,1.72438 0.46245,0.823 1.23842,1.28545 0.78381,0.45461 1.67735,0.45461 0.90138,0 1.70871,-0.45461 0.80732,-0.45461 1.23842,-1.23058 0.43893,-0.77597 0.43893,-1.7479 0,-1.4814 -0.97976,-2.47683 -0.97193,-0.99544 -2.39846,-0.99544 z"
               style="font-style:normal;font-variant:normal;font-weight:normal;font-stretch:normal;font-size:16.05241585px;font-family:'Century Gothic';-inkscape-font-specification:'Century Gothic';fill:#b3b3b3"
               id="path3604" />
            <path
               d="m 547.81593,552.42076 0,8.52785 -1.08166,0 0,-1.46573 q -0.68975,0.83868 -1.55194,1.26194 -0.85435,0.42326 -1.8733,0.42326 -1.8106,0 -3.09605,-1.30897 -1.27761,-1.3168 -1.27761,-3.19794 0,-1.84195 1.29329,-3.15091 1.29328,-1.30896 3.11172,-1.30896 1.0503,0 1.89682,0.44677 0.85435,0.44677 1.49707,1.34031 l 0,-1.56762 1.08166,0 z m -4.38933,0.83868 q -0.91706,0 -1.69303,0.45461 -0.77597,0.44677 -1.23842,1.26193 -0.45461,0.81516 -0.45461,1.72438 0,0.90138 0.46245,1.72438 0.46245,0.823 1.23842,1.28545 0.78381,0.45461 1.67735,0.45461 0.90138,0 1.7087,-0.45461 0.80733,-0.45461 1.23842,-1.23058 0.43894,-0.77597 0.43894,-1.7479 0,-1.4814 -0.97976,-2.47683 -0.97193,-0.99544 -2.39846,-0.99544 z"
               style="font-style:normal;font-variant:normal;font-weight:normal;font-stretch:normal;font-size:16.05241585px;font-family:'Century Gothic';-inkscape-font-specification:'Century Gothic';fill:#b3b3b3"
               id="path3606" />
            <path
               d="m 551.24901,549.25417 1.10517,0 0,3.16659 1.74006,0 0,0.94057 -1.74006,0 0,7.58728 -1.10517,0 0,-7.58728 -1.49707,0 0,-0.94057 1.49707,0 0,-3.16659 z"
               style="font-style:normal;font-variant:normal;font-weight:normal;font-stretch:normal;font-size:16.05241585px;font-family:'Century Gothic';-inkscape-font-specification:'Century Gothic';fill:#b3b3b3"
               id="path3608" />
            <path
               d="m 562.95912,558.11906 0.9249,0.48596 q -0.45461,0.89354 -1.05031,1.44221 -0.59569,0.54866 -1.34031,0.83867 -0.74462,0.28218 -1.68519,0.28218 -2.08493,0 -3.26065,-1.36383 -1.17571,-1.37167 -1.17571,-3.09605 0,-1.62249 0.99544,-2.89226 1.26193,-1.61464 3.37821,-1.61464 2.17899,0 3.48012,1.65383 0.92489,1.16788 0.94057,2.91577 l -7.66566,0 q 0.0314,1.48924 0.94841,2.44549 0.91706,0.94841 2.26521,0.94841 0.65056,0 1.26194,-0.22731 0.6192,-0.2273 1.0503,-0.60353 0.43109,-0.37623 0.93273,-1.2149 z m 0,-2.29656 q -0.21946,-0.87787 -0.64272,-1.40302 -0.41542,-0.52516 -1.10517,-0.84652 -0.68975,-0.32136 -1.45005,-0.32136 -1.25409,0 -2.15548,0.80732 -0.6584,0.58786 -0.99543,1.76358 l 6.34885,0 z"
               style="font-style:normal;font-variant:normal;font-weight:normal;font-stretch:normal;font-size:16.05241585px;font-family:'Century Gothic';-inkscape-font-specification:'Century Gothic';fill:#b3b3b3"
               id="path3610" />
            <path
               d="m 570.85208,549.41877 1.16004,0 0,10.41683 4.42853,0 0,1.11301 -5.58857,0 0,-11.52984 z"
               style="font-style:normal;font-variant:normal;font-weight:normal;font-stretch:normal;font-size:16.05241585px;font-family:'Century Gothic';-inkscape-font-specification:'Century Gothic';fill:#b3b3b3"
               id="path3612" />
            <path
               d="m 578.48639,548.9093 q 0.37623,0 0.64272,0.26649 0.2665,0.2665 0.2665,0.64273 0,0.36839 -0.2665,0.63488 -0.26649,0.2665 -0.64272,0.2665 -0.36839,0 -0.63489,-0.2665 -0.26649,-0.26649 -0.26649,-0.63488 0,-0.37623 0.26649,-0.64273 0.2665,-0.26649 0.63489,-0.26649 z m -0.54867,3.51146 1.10517,0 0,8.52785 -1.10517,0 0,-8.52785 z"
               style="font-style:normal;font-variant:normal;font-weight:normal;font-stretch:normal;font-size:16.05241585px;font-family:'Century Gothic';-inkscape-font-specification:'Century Gothic';fill:#b3b3b3"
               id="path3614" />
            <path
               d="m 581.43351,560.94861 0,-11.81985 1.0895,0 0,4.75773 q 0.68975,-0.84652 1.5441,-1.26194 0.85436,-0.42325 1.87331,-0.42325 1.8106,0 3.08821,1.3168 1.28544,1.30896 1.28544,3.18226 0,1.84979 -1.29328,3.15875 -1.29329,1.30897 -3.11172,1.30897 -1.04247,0 -1.88899,-0.44678 -0.84651,-0.44677 -1.49707,-1.34031 l 0,1.56762 -1.0895,0 z m 4.38934,-0.83868 q 0.91705,0 1.69302,-0.44677 0.77598,-0.45461 1.23059,-1.26977 0.46244,-0.81516 0.46244,-1.72438 0,-0.90922 -0.46244,-1.73222 -0.46245,-0.823 -1.24626,-1.27761 -0.77597,-0.46245 -1.66168,-0.46245 -0.90138,0 -1.71654,0.46245 -0.80732,0.45461 -1.24626,1.23058 -0.43109,0.77597 -0.43109,1.7479 0,1.4814 0.97192,2.47683 0.97976,0.99544 2.4063,0.99544 z"
               style="font-style:normal;font-variant:normal;font-weight:normal;font-stretch:normal;font-size:16.05241585px;font-family:'Century Gothic';-inkscape-font-specification:'Century Gothic';fill:#b3b3b3"
               id="path3616" />
            <path
               d="m 591.88954,552.42076 1.12085,0 0,1.24626 q 0.50163,-0.73678 1.05814,-1.09733 0.5565,-0.36839 1.16004,-0.36839 0.45461,0 0.97192,0.29001 l -0.57218,0.92489 q -0.34488,-0.14892 -0.58002,-0.14892 -0.54867,0 -1.05814,0.45461 -0.50948,0.44677 -0.77597,1.39518 -0.20379,0.72894 -0.20379,2.94712 l 0,2.88442 -1.12085,0 0,-8.52785 z"
               style="font-style:normal;font-variant:normal;font-weight:normal;font-stretch:normal;font-size:16.05241585px;font-family:'Century Gothic';-inkscape-font-specification:'Century Gothic';fill:#b3b3b3"
               id="path3618" />
            <path
               d="m 605.62971,552.42076 0,8.52785 -1.08165,0 0,-1.46573 q -0.68976,0.83868 -1.55195,1.26194 -0.85435,0.42326 -1.8733,0.42326 -1.8106,0 -3.09605,-1.30897 -1.27761,-1.3168 -1.27761,-3.19794 0,-1.84195 1.29329,-3.15091 1.29328,-1.30896 3.11172,-1.30896 1.05031,0 1.89682,0.44677 0.85435,0.44677 1.49708,1.34031 l 0,-1.56762 1.08165,0 z m -4.38933,0.83868 q -0.91706,0 -1.69303,0.45461 -0.77597,0.44677 -1.23842,1.26193 -0.45461,0.81516 -0.45461,1.72438 0,0.90138 0.46245,1.72438 0.46245,0.823 1.23842,1.28545 0.78381,0.45461 1.67735,0.45461 0.90138,0 1.70871,-0.45461 0.80732,-0.45461 1.23842,-1.23058 0.43893,-0.77597 0.43893,-1.7479 0,-1.4814 -0.97976,-2.47683 -0.97193,-0.99544 -2.39846,-0.99544 z"
               style="font-style:normal;font-variant:normal;font-weight:normal;font-stretch:normal;font-size:16.05241585px;font-family:'Century Gothic';-inkscape-font-specification:'Century Gothic';fill:#b3b3b3"
               id="path3620" />
            <path
               d="m 607.69113,552.42076 1.12085,0 0,1.24626 q 0.50163,-0.73678 1.05814,-1.09733 0.5565,-0.36839 1.16004,-0.36839 0.45461,0 0.97192,0.29001 l -0.57218,0.92489 q -0.34488,-0.14892 -0.58002,-0.14892 -0.54867,0 -1.05814,0.45461 -0.50948,0.44677 -0.77597,1.39518 -0.20379,0.72894 -0.20379,2.94712 l 0,2.88442 -1.12085,0 0,-8.52785 z"
               style="font-style:normal;font-variant:normal;font-weight:normal;font-stretch:normal;font-size:16.05241585px;font-family:'Century Gothic';-inkscape-font-specification:'Century Gothic';fill:#b3b3b3"
               id="path3622" />
            <path
               d="m 612.01775,552.42076 1.16004,0 2.93145,6.56832 2.84523,-6.56832 1.16787,0 -5.08692,11.64741 -1.16004,0 1.646,-3.76229 -3.50363,-7.88512 z"
               style="font-style:normal;font-variant:normal;font-weight:normal;font-stretch:normal;font-size:16.05241585px;font-family:'Century Gothic';-inkscape-font-specification:'Century Gothic';fill:#b3b3b3"
               id="path3624" />
          </g>
          <g
             transform="matrix(0.15376659,0,0,0.15376659,365.64877,459.82545)"
             id="g3458">
            <path
               inkscape:connector-curvature="0"
               id="path3480"
               d="m 369.64285,658.86509 c -7.41987,-1.66237 -11.01971,-3.56056 -16.72382,-8.81842 -7.89113,-7.27379 -11.15842,-15.57746 -10.53742,-26.78034 0.5969,-10.76795 3.38648,-16.9582 10.96961,-24.34221 4.05647,-3.94996 4.8672,-5.24646 2.8879,-4.61825 -3.51172,1.11457 -7.84627,-1.17278 -7.84627,-4.14051 0,-1.25809 1.16583,-3.76955 2.59073,-5.58102 1.96729,-2.50101 3.69688,-3.28896 7.1875,-3.27443 2.52822,0.0105 5.40544,0.53083 6.39382,1.15623 1.21324,0.76769 2.73737,0.39743 4.69152,-1.13971 2.44783,-1.92546 4.75522,-2.21011 14.95299,-1.84467 11.65682,0.41773 12.19799,0.56732 16.24597,4.49077 4.21468,4.08503 5.33078,7.71409 2.84493,9.25043 -0.73839,0.45635 -2.61206,-0.36293 -4.16371,-1.82063 -2.76769,-2.60011 -2.86196,-2.60529 -4.97254,-0.27313 -2.06142,2.27785 -1.965,2.49241 2.30627,5.1322 4.90375,3.03068 11.3084,11.52228 12.61402,16.72428 1.25053,4.98255 2.69187,5.07852 4.27401,0.28459 4.11257,-12.46121 17.02421,-21.94672 31.16002,-22.89166 7.46391,-0.49893 9.02318,-0.15442 16.37447,3.61786 9.42779,4.83782 12.45836,8.96902 10.56116,14.39671 -1.74522,4.99285 -7.43489,5.35254 -14.95506,0.94543 -10.54376,-6.17906 -23.12272,-2.32601 -27.41317,8.3969 -2.73849,6.84415 -1.57777,13.71049 3.2465,19.20504 6.75517,7.6937 15.81289,8.57797 25.07582,2.44806 5.55497,-3.67611 9.82618,-3.9499 12.66601,-0.81191 4.49799,4.97021 2.09706,11.12699 -6.24575,16.0162 -8.33637,4.88544 -22.27511,5.62693 -31.46443,1.67379 -7.84507,-3.37486 -16.49221,-12.46488 -18.9543,-19.92508 l -1.72445,-5.22514 -3.35736,7.27465 c -1.84654,4.00106 -5.25919,9.07396 -7.58366,11.27312 -7.79806,7.37767 -21.34762,11.3861 -31.10131,9.20085 z m 16.98804,-18.93784 c 7.9162,-4.80302 10.2795,-18.24207 4.57715,-26.02826 -2.98302,-4.07312 -9.80468,-7.60434 -14.69019,-7.60434 -4.91156,0 -11.71145,3.53735 -14.73609,7.66582 -3.29847,4.50222 -4.17527,13.43935 -1.7719,18.06066 5.67478,10.91167 16.41176,14.10042 26.62103,7.90612 z m 105.76035,15.62819 c -22.1988,-11.06213 -25.49253,-40.8414 -6.33131,-57.24269 13.76058,-11.77855 33.56467,-10.68436 46.32703,2.5596 8.35777,8.67316 9.69725,13.48017 9.72844,34.91218 0.0244,16.7134 -0.23368,19.10508 -2.25847,20.9375 -3.11262,2.81688 -8.36938,2.60253 -11.22026,-0.45751 l -2.35354,-2.52625 -5.50764,2.4988 c -8.24537,3.74089 -20.07969,3.4567 -28.38425,-0.68163 z m 23.54925,-14.57717 c 7.32327,-3.69291 10.26222,-9.2415 9.60545,-18.13461 -1.30413,-17.6587 -24.09674,-22.77653 -33.40984,-7.50182 -3.10938,5.09979 -3.19791,12.76681 -0.21326,18.46843 2.37448,4.53601 11.01813,9.9805 15.84501,9.9805 1.4274,0 5.10509,-1.26563 8.17264,-2.8125 z"
               style="fill:#ebd5e5" />
            <path
               inkscape:connector-curvature="0"
               id="path3478"
               d="m 369.01785,657.69549 c -19.36936,-5.03499 -29.99322,-23.67998 -24.48976,-42.97978 1.97072,-6.91102 9.57853,-16.15708 16.19804,-19.68609 l 4.54172,-2.42129 -7.5,0.27872 -7.5,0.27872 0,-3.6151 c 0,-2.47985 1.06924,-4.4134 3.40491,-6.15723 2.95984,-2.20984 4.00084,-2.35923 7.96405,-1.14289 3.64883,1.11986 5.1076,1.03989 7.30593,-0.40051 2.91592,-1.91059 3.77131,-1.98251 17.78697,-1.49561 7.59033,0.26369 9.47309,0.7896 12.30228,3.43634 1.83723,1.71875 3.87552,4.11772 4.52954,5.33105 1.94454,3.60747 -2.27329,4.22618 -5.85728,0.8592 -2.72243,-2.55759 -3.0614,-2.62619 -3.0614,-0.61959 0,1.88069 -0.72854,2.13822 -4.375,1.54648 -5.32081,-0.86345 -5.77834,0.89909 -0.69353,2.67166 9.0666,3.16064 18.45416,15.81876 20.70487,27.9183 1.16001,6.23607 -2.13259,17.02626 -7.25406,23.77235 -7.2991,9.6145 -22.89674,15.31342 -34.00728,12.42527 z m 18.12563,-16.71722 c 11.65685,-7.95684 11.42287,-23.84698 -0.48203,-32.73526 -4.78293,-3.57098 -15.50427,-3.57098 -20.2872,0 -8.42876,6.29297 -10.96185,14.40599 -7.40545,23.7183 2.94765,7.71829 9.08318,11.82946 17.65436,11.82946 4.58284,0 7.56987,-0.79855 10.52032,-2.8125 z m 48.03808,15.61637 c -10.6218,-3.79951 -16.63437,-9.72583 -20.68624,-20.3895 -3.98787,-10.4952 -2.8195,-19.7464 3.81509,-30.20806 6.80286,-10.727 21.75958,-17.1787 33.8257,-14.59098 12.27365,2.63223 21.86624,11.57453 18.72084,17.45175 -2.19569,4.10267 -6.9439,4.35938 -12.5094,0.67632 -7.27247,-4.8127 -14.26599,-5.39269 -21.07303,-1.74766 -17.51498,9.37893 -11.13156,36.02945 8.61833,35.98116 3.09375,-0.008 6.81717,-0.70859 8.27427,-1.55783 9.93025,-5.78765 10.50077,-5.99363 12.95837,-4.67836 7.33122,3.92355 5.31428,11.28535 -4.54148,16.57635 -8.57474,4.60329 -18.87299,5.53787 -27.40245,2.48681 z m 61.66834,0.14211 c -28.88036,-9.99301 -29.89743,-50.54887 -1.58205,-63.085 16.34677,-7.23724 34.91082,0.25143 43.41685,17.5142 2.45651,4.98544 2.89011,8.10996 3.2616,23.50319 0.42769,17.7218 0.42264,17.75917 -2.83331,21.01513 -3.63805,3.63804 -7.43568,3.36425 -10.72284,-0.77308 -1.83751,-2.31274 -1.98914,-2.30819 -7.08455,0.21282 -7.09982,3.51271 -17.06538,4.16989 -24.4557,1.61274 z m 19.93911,-15.03344 c 11.63643,-5.52184 13.53664,-22.664 3.49013,-31.48495 -11.49189,-10.09001 -29.0411,-3.54357 -31.32479,11.68518 -0.69971,4.66597 -0.31271,6.77629 2.103,11.46776 4.9528,9.61868 15.69209,13.0961 25.73166,8.33201 z"
               style="fill:#d1d1d1" />
            <path
               inkscape:connector-curvature="0"
               id="path3476"
               d="m 369.01785,657.68559 c -19.56382,-5.13719 -30.08151,-24.35525 -24.15498,-44.13627 1.93677,-6.46435 9.91103,-15.3739 17.12155,-19.12969 6.17415,-3.21597 4.37727,-4.1643 -3.57116,-1.88471 -8.16585,2.34193 -11.52012,-1.57128 -6.22172,-7.25845 2.76298,-2.9657 9.69232,-3.74469 12.07909,-1.35792 1.00371,1.00371 2.38861,0.63044 5.10087,-1.37481 3.42869,-2.53494 4.42548,-2.66196 12.60585,-1.6064 4.88552,0.63042 9.59159,0.70812 10.45795,0.17269 1.52809,-0.94442 10.95755,6.95919 10.95755,9.18442 0,1.84279 -2.94161,1.01724 -5.73878,-1.61057 l -2.7749,-2.60689 -0.82818,2.60937 c -0.8428,2.65543 -1.12376,2.66995 -10.03314,0.51828 -1.7307,-0.41797 -1.34605,0.19222 1.25,1.98295 2.0625,1.42269 4.39229,2.59041 5.17731,2.59494 0.78502,0.005 4.22425,2.52293 7.64274,5.59645 18.67931,16.79431 15.09048,44.29256 -7.26945,55.69974 -5.41279,2.7614 -16.26856,4.05951 -21.8006,2.60687 z m 19.15145,-17.28957 c 5.22247,-3.89914 7.9455,-10.20133 7.35001,-17.01087 -0.93801,-10.72634 -8.43703,-17.71938 -19.00146,-17.71938 -14.0455,0 -22.67048,12.88525 -17.56807,26.24572 4.48072,11.73261 19.15999,15.99506 29.21952,8.48453 z m 48.96546,15.97682 c -8.61023,-2.61911 -16.35323,-9.17917 -20.75255,-17.58207 -3.25143,-6.21038 -3.22075,-21.39898 0.0566,-28.00425 8.2955,-16.7192 28.60683,-23.62526 44.32433,-15.07073 7.58809,4.12996 10.71979,7.99674 9.5251,11.76087 -1.36409,4.29786 -5.71064,4.305 -13.82252,0.0227 -8.75012,-4.61922 -14.23076,-4.50618 -21.71685,0.44788 -5.71801,3.784 -8.85598,9.95296 -8.85598,17.41006 0,14.74929 17.17104,24.57365 30.0195,17.17556 9.55391,-5.5011 9.78291,-5.5584 12.47543,-3.12172 3.57572,3.23599 3.10677,6.46972 -1.55743,10.73945 -6.62108,6.06112 -20.59767,8.98969 -29.69559,6.22222 z m 60.00809,-0.67787 c -12.80835,-4.14769 -21.77845,-17.05841 -21.63554,-31.14012 0.0426,-4.20149 0.92023,-9.64874 1.95016,-12.10499 4.23849,-10.10806 15.31315,-18.56467 26.82682,-20.48493 8.86008,-1.47769 18.54817,2.13768 26.16151,9.76288 8.61773,8.63115 10.44705,14.90796 10.44705,35.8461 0,13.74777 -0.30061,16.10144 -2.28592,17.89812 -3.14752,2.84846 -5.14714,2.6006 -9.02988,-1.1193 l -3.3276,-3.18805 -4.54341,2.68069 c -5.82679,3.43788 -17.04898,4.28291 -24.56319,1.8496 z m 19.53259,-12.68776 c 5.2503,-2.49143 8.76665,-6.7969 10.62967,-13.01511 4.17645,-13.93974 -9.01317,-28.14825 -23.61829,-25.44277 -6.18143,1.14506 -13.36816,8.33953 -15.22725,15.24364 -4.45853,16.55776 12.62467,30.61275 28.21587,23.21424 z"
               style="fill:#d8abcc" />
            <path
               inkscape:connector-curvature="0"
               id="path3474"
               d="m 364.70981,655.38107 c -8.08008,-2.85276 -16.89479,-12.15299 -19.34794,-20.41363 -2.46526,-8.30145 -2.46695,-11.54619 -0.0104,-19.8185 2.38978,-8.04727 9.67716,-16.35467 17.8307,-20.32648 6.80194,-3.31341 4.54347,-4.60475 -4.20201,-2.40261 -8.95677,2.25534 -12.28358,-1.24529 -6.78867,-7.14338 2.76297,-2.9657 9.69231,-3.74469 12.07908,-1.35792 1.00371,1.00371 2.38862,0.63044 5.10087,-1.37481 3.42869,-2.53494 4.42548,-2.66196 12.60585,-1.6064 4.88552,0.63042 9.59159,0.70812 10.45795,0.17269 1.52812,-0.94442 10.95758,6.95919 10.95758,9.18442 0,1.84279 -2.94161,1.01724 -5.73878,-1.61057 l -2.7749,-2.60689 -0.82818,2.60937 c -0.83507,2.63108 -1.85012,2.68033 -9.87718,0.47931 -4.15676,-1.13979 -0.92649,2.00924 5.29518,5.162 12.79811,6.48529 21.26061,20.72743 19.77405,33.27913 -2.58172,21.79854 -23.864,35.07178 -44.53323,27.77427 z m 20.71563,-12.37386 c 12.02495,-5.70621 15.00497,-21.6867 5.91945,-31.74329 -5.9073,-6.53868 -13.459,-8.57394 -21.05263,-5.67391 -6.61701,2.52706 -11.33574,7.71531 -13.1521,14.46076 -4.3531,16.16618 12.96871,30.22463 28.28528,22.95644 z m 51.70932,13.36563 c -8.61023,-2.61911 -16.35323,-9.17917 -20.75255,-17.58207 -3.25143,-6.21038 -3.22075,-21.39898 0.0566,-28.00425 8.2955,-16.7192 28.60683,-23.62526 44.32433,-15.07073 7.58809,4.12996 10.71979,7.99674 9.5251,11.76087 -1.36409,4.29786 -5.71064,4.305 -13.82252,0.0227 -8.75012,-4.61922 -14.23076,-4.50618 -21.71685,0.44788 -5.71801,3.784 -8.85598,9.95296 -8.85598,17.41006 0,14.74929 17.17104,24.57365 30.0195,17.17556 9.55391,-5.5011 9.78291,-5.5584 12.47543,-3.12172 3.57572,3.23599 3.10677,6.46972 -1.55743,10.73945 -6.62108,6.06112 -20.59767,8.98969 -29.69559,6.22222 z m 60.00809,-0.67787 c -12.80835,-4.14769 -21.77845,-17.05841 -21.63554,-31.14012 0.0426,-4.20149 0.92023,-9.64874 1.95016,-12.10499 4.23849,-10.10806 15.31315,-18.56467 26.82682,-20.48493 8.86008,-1.47769 18.54817,2.13768 26.16151,9.76288 8.61773,8.63115 10.44705,14.90796 10.44705,35.8461 0,13.74777 -0.30061,16.10144 -2.28592,17.89812 -3.14752,2.84846 -5.14714,2.6006 -9.02988,-1.1193 l -3.3276,-3.18805 -4.54341,2.68069 c -5.82679,3.43788 -17.04898,4.28291 -24.56319,1.8496 z m 19.53259,-12.68776 c 5.2503,-2.49143 8.76665,-6.7969 10.62967,-13.01511 4.17645,-13.93974 -9.01317,-28.14825 -23.61829,-25.44277 -6.18143,1.14506 -13.36816,8.33953 -15.22725,15.24364 -4.45853,16.55776 12.62467,30.61275 28.21587,23.21424 z"
               style="fill:#afafaf" />
            <path
               inkscape:connector-curvature="0"
               id="path3472"
               d="m 364.70981,655.38107 c -8.08008,-2.85276 -16.89479,-12.15299 -19.34794,-20.41363 -2.46526,-8.30145 -2.46695,-11.54619 -0.0103,-19.8185 2.36039,-7.9483 9.66571,-16.35616 17.51126,-20.15413 7.52575,-3.64315 8.52495,-5.59063 2.2869,-4.45725 -14.36449,2.60984 -14.25684,2.61685 -14.25684,-0.92839 0,-2.11428 1.11867,-3.99375 3.18166,-5.34547 2.72304,-1.78421 3.91138,-1.86607 8.24417,-0.56793 4.3693,1.30907 5.37854,1.23077 7.37037,-0.57181 1.26931,-1.14871 3.60631,-2.02962 5.19332,-1.95756 1.58701,0.072 6.68535,0.28395 11.32964,0.47088 7.63059,0.30713 8.8326,0.72832 12.47596,4.37168 2.21749,2.2175 3.42668,4.03181 2.68708,4.03181 -0.7396,0 -2.36284,-1.125 -3.6072,-2.5 -2.87642,-3.1784 -4.375,-3.1784 -4.375,0 0,2.82113 -1.27389,3.03563 -7.47172,1.25811 -3.40711,-0.97715 -4.72819,-0.84391 -6.19711,0.625 -1.65585,1.65585 -1.5493,1.86689 0.94253,1.86689 4.65083,0 14.37955,5.67681 19.79243,11.54909 23.27264,25.24783 -3.13302,64.05672 -35.74917,52.54121 z m 20.71563,-12.37386 c 12.02495,-5.70621 15.00497,-21.6867 5.91945,-31.74329 -5.9073,-6.53868 -13.459,-8.57394 -21.05263,-5.67391 -6.61701,2.52706 -11.33574,7.71531 -13.1521,14.46076 -4.3531,16.16618 12.96871,30.22463 28.28528,22.95644 z m 49.95582,11.39361 c -12.03009,-4.59638 -19.3793,-14.41438 -20.41103,-27.26761 -2.19505,-27.34569 30.99185,-44.65668 50.71544,-26.45426 3.82498,3.52997 4.35348,4.60125 3.1982,6.4828 -2.07959,3.38694 -4.80555,3.36346 -10.092,-0.0869 -9.143,-5.96751 -18.64331,-5.45359 -26.85074,1.45251 -11.26,9.47466 -8.96965,28.67145 4.2238,35.40225 7.02562,3.58421 16.47735,2.83759 23.2186,-1.83409 5.24362,-3.63384 8.40697,-3.42174 9.69941,0.65034 2.67973,8.44312 -20.82927,16.57321 -33.70168,11.655 z m 62.69513,0.45116 c -6.36326,-1.77876 -16.4075,-11.06292 -19.05606,-17.61404 -8.45703,-20.91814 6.43457,-43.62715 28.74647,-43.83705 13.90436,-0.13081 26.08518,8.84366 30.02921,22.12466 2.65764,8.94921 2.57543,36.10806 -0.1175,38.80093 -2.83101,2.83101 -4.98593,2.43277 -7.8094,-1.44323 l -2.48221,-3.40753 -6.03989,3.01647 c -6.78245,3.38732 -16.18421,4.34072 -23.27067,2.35979 z m 18.22747,-10.26624 c 8.31887,-3.47585 14.497,-14.85533 12.84529,-23.6597 -1.78401,-9.5096 -12.04339,-18.38527 -21.25151,-18.38527 -13.43274,0 -24.91489,15.51978 -20.7712,28.07528 4.18701,12.68678 17.26356,18.94762 29.17742,13.96969 z"
               style="fill:#c78ab7" />
            <path
               inkscape:connector-curvature="0"
               id="path3470"
               d="m 370.77155,656.15511 c -7.85425,-1.16508 -12.46493,-3.7836 -18.26555,-10.37346 -14.70448,-16.70517 -8.44254,-42.43672 12.44935,-51.1568 2.57812,-1.07608 4.6875,-2.62132 4.6875,-3.43385 0,-1.02589 -1.43242,-1.21593 -4.6875,-0.62191 -14.11036,2.57503 -14.0625,2.5783 -14.0625,-0.95992 0,-2.11428 1.11867,-3.99375 3.18166,-5.34547 2.72304,-1.78421 3.91138,-1.86607 8.24417,-0.56793 4.3693,1.30907 5.37854,1.23077 7.37037,-0.57181 1.26931,-1.14871 3.60631,-2.02962 5.19332,-1.95756 1.58701,0.072 6.68535,0.28395 11.32964,0.47088 7.63059,0.30713 8.8326,0.72832 12.47596,4.37168 2.21749,2.2175 3.42668,4.03181 2.68708,4.03181 -0.7396,0 -2.36284,-1.125 -3.6072,-2.5 -2.87642,-3.1784 -4.375,-3.1784 -4.375,0 0,2.82113 -1.27389,3.03563 -7.47172,1.25811 -3.40711,-0.97715 -4.72819,-0.84391 -6.19711,0.625 -1.65585,1.65585 -1.61995,1.86689 0.31753,1.86689 2.96074,0 13.37126,5.37639 18.07592,9.3351 13.08691,11.01191 13.64061,33.65525 1.14216,46.70905 -7.19584,7.51558 -16.9416,10.53296 -28.48808,8.82019 z m 15.28491,-13.09499 c 14.79239,-7.55477 14.43249,-30.08769 -0.59446,-37.21844 -20.00319,-9.49214 -39.15423,16.22918 -24.1811,32.47707 6.86051,7.44459 16.04213,9.2017 24.77556,4.74137 z m 49.3248,11.3407 c -12.03009,-4.59638 -19.3793,-14.41438 -20.41103,-27.26761 -2.19505,-27.34569 30.99185,-44.65668 50.71544,-26.45426 3.82498,3.52997 4.35348,4.60125 3.1982,6.4828 -2.07959,3.38694 -4.80555,3.36346 -10.092,-0.0869 -9.143,-5.96751 -18.64331,-5.45359 -26.85074,1.45251 -11.26,9.47466 -8.96965,28.67145 4.2238,35.40225 7.02562,3.58421 16.47735,2.83759 23.2186,-1.83409 5.24362,-3.63384 8.40697,-3.42174 9.69941,0.65034 2.67973,8.44312 -20.82927,16.57321 -33.70168,11.655 z m 62.69513,0.45116 c -6.36326,-1.77876 -16.4075,-11.06292 -19.05606,-17.61404 -8.45703,-20.91814 6.43457,-43.62715 28.74647,-43.83705 13.90436,-0.13081 26.08518,8.84366 30.02921,22.12466 2.65764,8.94921 2.57543,36.10806 -0.1175,38.80093 -2.83101,2.83101 -4.98593,2.43277 -7.8094,-1.44323 l -2.48221,-3.40753 -6.03989,3.01647 c -6.78245,3.38732 -16.18421,4.34072 -23.27067,2.35979 z m 18.22747,-10.26624 c 8.31887,-3.47585 14.497,-14.85533 12.84529,-23.6597 -1.78401,-9.5096 -12.04339,-18.38527 -21.25151,-18.38527 -13.43274,0 -24.91489,15.51978 -20.7712,28.07528 4.18701,12.68678 17.26356,18.94762 29.17742,13.96969 z"
               style="fill:#c17bae" />
            <path
               inkscape:connector-curvature="0"
               id="path3468"
               d="m 367.14285,654.89631 c -12.84852,-3.86907 -21.70225,-16.05137 -21.69808,-29.85554 0.005,-17.27724 12.46994,-30.55862 30.11356,-32.08649 11.14883,-0.96546 22.08874,5.67528 28.51156,17.30705 8.44108,15.28684 2.32113,34.26842 -13.71155,42.52764 -5.74891,2.96155 -16.9902,3.98195 -23.21549,2.10734 z m 17.91101,-10.31057 c 8.31887,-3.47585 14.497,-14.85533 12.84529,-23.6597 -1.78401,-9.5096 -12.04339,-18.38527 -21.25151,-18.38527 -13.43274,0 -24.91489,15.51978 -20.7712,28.07528 4.18702,12.68678 17.26355,18.94762 29.17742,13.96969 z m 50.3274,9.81508 c -12.03009,-4.59638 -19.3793,-14.41438 -20.41103,-27.26761 -2.19505,-27.34569 30.99185,-44.65668 50.71544,-26.45426 3.82498,3.52997 4.35348,4.60125 3.1982,6.4828 -2.07959,3.38694 -4.80555,3.36346 -10.092,-0.0869 -9.143,-5.96751 -18.64331,-5.45359 -26.85074,1.45251 -11.26,9.47466 -8.96965,28.67145 4.2238,35.40225 7.02562,3.58421 16.47735,2.83759 23.2186,-1.83409 5.24362,-3.63384 8.40697,-3.42174 9.69941,0.65034 2.67973,8.44312 -20.82927,16.57321 -33.70168,11.655 z m 62.69513,0.45116 c -6.36327,-1.77876 -16.4075,-11.06292 -19.05606,-17.61404 -8.45703,-20.91814 6.43457,-43.62715 28.74647,-43.83705 13.90436,-0.13081 26.08518,8.84366 30.02921,22.12466 2.65764,8.94921 2.57543,36.10806 -0.1175,38.80093 -2.83101,2.83101 -4.98593,2.43277 -7.8094,-1.44323 l -2.48221,-3.40753 -6.03989,3.01647 c -6.78245,3.38732 -16.18421,4.34072 -23.27067,2.35979 z m 18.22747,-10.26624 c 8.31886,-3.47585 14.497,-14.85533 12.84529,-23.6597 -1.78401,-9.5096 -12.04339,-18.38527 -21.25151,-18.38527 -13.43274,0 -24.91489,15.51978 -20.7712,28.07528 4.18701,12.68678 17.26356,18.94762 29.17742,13.96969 z M 350.89285,589.61449 c 0,-2.11998 1.11648,-3.99763 3.18166,-5.35079 2.72304,-1.78421 3.91138,-1.86607 8.24417,-0.56793 4.3693,1.30907 5.37854,1.23077 7.37037,-0.57181 1.26931,-1.14871 3.60631,-2.02962 5.19332,-1.95756 1.58701,0.072 6.68535,0.28395 11.32964,0.47088 7.63059,0.30713 8.8326,0.72832 12.47596,4.37168 2.21749,2.2175 3.42668,4.03181 2.68708,4.03181 -0.7396,0 -2.36284,-1.125 -3.6072,-2.5 -2.87642,-3.1784 -4.375,-3.1784 -4.375,0 0,2.81709 -1.27584,3.03507 -7.43153,1.26964 -3.35371,-0.96183 -4.74147,-0.82181 -6.3585,0.64159 -1.42866,1.29292 -4.35229,1.79269 -9.45173,1.61569 -4.06078,-0.14094 -10.05512,0.2093 -13.32074,0.77832 -5.83236,1.01625 -5.9375,0.97674 -5.9375,-2.23152 z"
               style="fill:#969696" />
            <path
               inkscape:connector-curvature="0"
               id="path3466"
               d="m 367.14285,654.89631 c -12.84852,-3.86907 -21.70225,-16.05137 -21.69808,-29.85554 0.005,-17.27724 12.46994,-30.55862 30.11356,-32.08649 11.14883,-0.96546 22.08874,5.67528 28.51156,17.30705 8.44108,15.28684 2.32113,34.26842 -13.71155,42.52764 -5.74891,2.96155 -16.9902,3.98195 -23.21549,2.10734 z m 17.91101,-10.31057 c 8.31887,-3.47585 14.497,-14.85533 12.84529,-23.6597 -1.78401,-9.5096 -12.04339,-18.38527 -21.25151,-18.38527 -13.43274,0 -24.91489,15.51978 -20.7712,28.07528 4.18702,12.68678 17.26355,18.94762 29.17742,13.96969 z m 51.32354,8.87382 c -13.19096,-5.23438 -20.48455,-15.69814 -20.48455,-29.38819 0,-19.00575 19.99188,-33.86421 38.2577,-28.43406 7.66303,2.2781 14.99937,8.12756 13.87346,11.06166 -1.10925,2.89065 -3.74395,2.61854 -8.96734,-0.92615 -9.15844,-6.21509 -20.64254,-5.27222 -28.47871,2.33817 -19.98613,19.41028 4.82324,50.52934 28.37591,35.59268 5.52794,-3.50572 6.22197,-3.66562 8.03604,-1.85155 6.80622,6.8062 -18.51577,16.40762 -30.61251,11.60744 z m 63.25736,0.41328 c -13.66811,-4.15765 -21.54242,-14.94149 -21.55031,-29.51309 -0.0144,-26.39831 32.09151,-39.69496 50.76295,-21.02353 7.42694,7.42695 8.8134,12.00901 9.3214,30.80597 0.47365,17.52625 -0.22586,20.89858 -4.33495,20.89858 -0.96408,0 -2.28754,-1.40625 -2.941,-3.125 -1.4843,-3.90402 -3.0747,-3.90571 -11.43838,-0.0122 -6.69856,3.11835 -13.74165,3.81815 -19.81971,1.96928 z m 20.16594,-9.91348 c 15.59836,-9.89219 13.7792,-32.59229 -3.23114,-40.31901 -6.39084,-2.90296 -11.21258,-2.90296 -17.60342,0 -10.29888,4.67813 -15.92287,15.87398 -13.18783,26.25344 4.13178,15.68011 20.68532,22.52369 34.02239,14.06557 z M 351.42435,590.87285 c -1.06507,-2.77551 1.60605,-6.94348 4.99495,-7.79404 1.62486,-0.40781 4.56821,0.0931 6.54078,1.11317 3.26242,1.68706 3.84313,1.64684 6.42663,-0.44515 2.37997,-1.92719 4.69596,-2.24342 14.29435,-1.95179 7.29212,0.22156 11.62971,0.87448 11.93717,1.79687 0.26562,0.79687 -0.12642,1.44886 -0.87121,1.44886 -0.7448,0 -1.35417,0.81055 -1.35417,1.80123 0,2.76934 -1.68599,3.22201 -6.77108,1.81795 -3.70914,-1.02414 -5.2632,-0.89283 -7.6068,0.64276 -1.90816,1.25028 -5.28737,1.83024 -9.59622,1.64697 -3.658,-0.15558 -9.04029,0.188 -11.96065,0.76351 -4.25696,0.83892 -5.4533,0.67231 -6.03375,-0.84034 z"
               style="fill:#8d8e8e" />
            <path
               inkscape:connector-curvature="0"
               id="path3464"
               d="m 367.14285,654.89631 c -12.84852,-3.86907 -21.70225,-16.05137 -21.69808,-29.85554 0.005,-17.27724 12.46994,-30.55862 30.11356,-32.08649 11.14883,-0.96546 22.08874,5.67528 28.51156,17.30705 8.44108,15.28684 2.32113,34.26842 -13.71155,42.52764 -5.74891,2.96155 -16.9902,3.98195 -23.21549,2.10734 z m 17.91101,-10.31057 c 8.31887,-3.47585 14.497,-14.85533 12.84529,-23.6597 -1.78401,-9.5096 -12.04339,-18.38527 -21.25151,-18.38527 -13.43274,0 -24.91489,15.51978 -20.7712,28.07528 4.18702,12.68678 17.26355,18.94762 29.17742,13.96969 z m -33.72684,-53.96653 c -1.00426,-2.61705 3.05128,-6.82844 6.57575,-6.82844 1.57984,0 4.2437,0.62478 5.91967,1.38841 2.54446,1.15933 3.67189,0.92657 6.83328,-1.41074 2.90777,-2.14981 4.6068,-2.5778 7.32409,-1.84495 1.94592,0.52482 6.59007,0.98606 10.32032,1.02499 3.73026,0.0389 6.12088,0.29124 5.3125,0.5607 -0.80838,0.26946 -1.46978,1.55239 -1.46978,2.85096 0,2.0158 -0.95957,2.35999 -6.5625,2.3539 -11.20188,-0.0121 -21.34992,0.89957 -26.5625,2.3865 -6.43411,1.83538 -6.81088,1.8118 -7.69083,-0.48133 z"
               style="fill:#a7508f" />
            <path
               inkscape:connector-curvature="0"
               id="path3462"
               d="m 351.32702,590.61921 c -1.00426,-2.61705 3.05128,-6.82844 6.57575,-6.82844 1.57984,0 4.2437,0.62478 5.91967,1.38841 2.54446,1.15933 3.67189,0.92657 6.83328,-1.41074 2.90777,-2.14981 4.6068,-2.5778 7.32409,-1.84495 1.94592,0.52482 6.59007,0.98606 10.32032,1.02499 3.73026,0.0389 6.12088,0.29124 5.3125,0.5607 -0.80838,0.26946 -1.46978,1.55239 -1.46978,2.85096 0,2.0158 -0.95957,2.35999 -6.5625,2.3539 -11.20188,-0.0121 -21.34992,0.89957 -26.5625,2.3865 -6.43411,1.83538 -6.81088,1.8118 -7.69083,-0.48133 z"
               style="fill:#5f5f5f" />
            <path
               inkscape:connector-curvature="0"
               id="path3460"
               d="m 352.14285,589.5439 c 0,-3.32684 5.40982,-6.01069 9.20628,-4.56728 5.81251,2.20992 4.39947,3.77442 -5.14378,5.69515 -3.19344,0.64273 -4.0625,0.40145 -4.0625,-1.12787 z m 17.5,-2.37813 c 0,-2.48406 2.68542,-4.625 5.80123,-4.625 3.52568,0 4.87328,2.05611 2.90333,4.42976 -1.89171,2.27936 -8.70456,2.43218 -8.70456,0.19524 z m 13.66983,-1.59659 c -1.44248,-1.73809 -1.1389,-1.92314 2.56319,-1.5625 2.30969,0.225 4.43027,1.11221 4.71238,1.97159 0.75473,2.29907 -5.31105,1.958 -7.27556,-0.40909 z"
               style="fill:#1a1a1a" />
          </g>
        </g>
      </g>
    </g>
  </g>
</svg>
