<?xml version="1.0" encoding="UTF-8" standalone="no"?>
<!-- Created with Inkscape (http://www.inkscape.org/) -->

<svg
   xmlns:dc="http://purl.org/dc/elements/1.1/"
   xmlns:cc="http://creativecommons.org/ns#"
   xmlns:rdf="http://www.w3.org/1999/02/22-rdf-syntax-ns#"
   xmlns:svg="http://www.w3.org/2000/svg"
   xmlns="http://www.w3.org/2000/svg"
   xmlns:sodipodi="http://sodipodi.sourceforge.net/DTD/sodipodi-0.dtd"
   xmlns:inkscape="http://www.inkscape.org/namespaces/inkscape"
   width="140.49612mm"
   height="48.657803mm"
   viewBox="0 0 497.82091 172.40954"
   id="svg2"
   version="1.1"
   inkscape:version="0.91 r13725"
   sodipodi:docname="OpenUpgrade_black.svg"
   inkscape:export-filename="B:\odoo\oca-addons\OpenUpgrade\openerp\openupgrade\doc\source\images\OpenUpgrade_black.png"
   inkscape:export-xdpi="150"
   inkscape:export-ydpi="150">
  <defs
     id="defs4" />
  <sodipodi:namedview
     id="base"
     pagecolor="#ffffff"
     bordercolor="#666666"
     borderopacity="1.0"
     inkscape:pageopacity="0.0"
     inkscape:pageshadow="2"
     inkscape:zoom="1.979899"
     inkscape:cx="146.6731"
     inkscape:cy="107.83951"
     inkscape:document-units="px"
     inkscape:current-layer="layer1"
     showgrid="false"
     showguides="false"
     inkscape:window-width="1280"
     inkscape:window-height="697"
     inkscape:window-x="-8"
     inkscape:window-y="-8"
     inkscape:window-maximized="1"
     fit-margin-left="15"
     fit-margin-top="15"
     fit-margin-right="15"
     fit-margin-bottom="15" />
  <metadata
     id="metadata7">
    <rdf:RDF>
      <cc:Work
         rdf:about="">
        <dc:format>image/svg+xml</dc:format>
        <dc:type
           rdf:resource="http://purl.org/dc/dcmitype/StillImage" />
        <dc:title></dc:title>
      </cc:Work>
    </rdf:RDF>
  </metadata>
  <g
     inkscape:label="Layer 1"
     inkscape:groupmode="layer"
     id="layer1"
     transform="translate(-199.70409,-446.96773)">
    <rect
       style="fill:#1a1a1a;fill-opacity:1;stroke:none;stroke-width:3;stroke-miterlimit:4;stroke-dasharray:none"
       id="rect3386"
       width="498.51025"
       height="173.24118"
       x="199.70406"
       y="447.65134"
       ry="27.426901" />
    <g
       id="g3539">
      <g
         id="g3357"
         transform="matrix(0.36590234,0,0,0.36590234,476.78486,407.17249)">
        <path
           sodipodi:nodetypes="cssssssssscssssssssssscsssssssssssscssscssssssssscsscccszccsssssccsccscsssscssccsssscsscc"
           inkscape:connector-curvature="0"
           id="path3353"
           d="m 312.6493,392.0908 c 2.83213,-0.69021 6.629,-2.41885 8.4375,-3.84141 2.83878,-2.23298 3.29875,-3.55644 3.36546,-9.68327 0.0425,-3.90322 0.49248,-11.24386 0.99994,-16.31253 0.85199,-8.51007 1.2754,-9.53904 5.52936,-13.4375 2.53369,-2.32196 5.89307,-4.22174 7.46527,-4.22174 1.5722,0 4.81483,-1.60558 7.20586,-3.56796 2.39101,-1.96238 6.17543,-4.50808 8.4098,-5.6571 2.78011,-1.42968 4.0625,-2.98654 4.0625,-4.93204 0,-4.52009 2.42101,-5.8429 10.69367,-5.8429 l 7.69369,0 6.43131,-6.80017 c 5.7539,-6.0839 6.43133,-7.38443 6.43133,-12.34695 0,-6.02729 2.32986,-9.16531 5.81261,-7.82885 1.35208,0.51884 3.36034,-0.40909 5.66592,-2.61797 2.49086,-2.38639 5.36041,-3.62734 9.48397,-4.10138 5.56041,-0.63921 5.93542,-0.91623 6.29747,-4.65197 0.56799,-5.86078 -1.63796,-12.66309 -6.6028,-20.36056 -2.42395,-3.75806 -4.40717,-7.80299 -4.40717,-8.98873 0,-3.62058 2.42914,-3.90254 3.7475,-0.43498 0.68356,1.79788 3.17459,5.79882 5.53562,8.89098 2.82202,3.69588 4.93122,8.42089 6.15613,13.79097 1.02482,4.49287 2.09187,8.39741 2.37123,8.67675 0.27933,0.27934 3.07916,-1.95582 6.22183,-4.96702 3.52295,-3.37559 8.17314,-6.29174 12.12737,-7.60512 4.24008,-1.40833 7.56592,-3.57461 9.81437,-6.39256 1.87052,-2.3443 4.10408,-4.26238 4.96345,-4.2624 1.98436,-5e-5 1.96091,0.60366 -0.18453,4.75248 -2.50027,4.83501 -6.0306,7.69643 -14.86456,12.04813 -5.91241,2.91253 -8.42116,5.01385 -10.52214,8.81333 -2.52928,4.57406 -2.60046,5.23051 -0.85587,7.89309 2.60845,3.98101 1.2015,9.42167 -3.4482,13.33414 -3.0051,2.52862 -5.10643,3.15879 -10.53311,3.15879 -3.7285,0 -6.77909,0.37245 -6.77909,0.82768 0,0.45522 1.43884,3.28287 3.19741,6.28366 l 3.19743,5.45598 8.45922,-4.62619 c 5.57019,-3.04622 9.23525,-4.3284 10.73141,-3.75426 2.38807,0.91638 2.37924,3.0508 -0.10237,24.75548 l -0.80805,7.06735 5.94035,6.35072 c 5.07978,5.4307 5.6206,6.47342 3.73316,7.19769 -3.33936,1.28144 -16.1873,-12.35834 -14.5572,-15.4544 0.64538,-1.22579 1.57739,-6.86934 2.07113,-12.54121 0.89695,-10.30378 0.15367,-12.37298 -3.05551,-8.50615 -2.73739,3.29835 -13.35604,9.44365 -16.31799,9.44365 -1.60443,0 -3.94925,-0.93405 -5.21073,-2.07567 -4.10075,-3.71113 -4.11175,-0.51944 -0.0267,7.76449 4.3097,8.73963 4.74053,12.74744 2.71317,25.23992 l -1.26646,7.80374 4.71339,6.19991 c 4.02595,5.29566 5.78687,6.51304 12.07367,8.34695 4.67453,1.3636 7.56483,2.92927 7.92086,4.29074 -0.912,2.05151 -4.53833,1.77609 -6.65597,1.03044 -3.36885,-1.18622 -7.20657,-2.20036 -8.52827,-2.25365 -1.32171,-0.0532 -5.45023,-3.21785 -9.17449,-7.03236 0,0 -4.2694,-3.67207 -5.3428,-7.11407 -1.0734,-3.442 0.57774,-11.59168 0.57774,-11.59168 l 2.00631,-11.77026 -3.89,-8.23319 c -2.1395,-4.52826 -4.4698,-8.03993 -5.17844,-7.80372 -0.70865,0.23622 -2.33652,3.2391 -3.61751,6.67307 -1.71071,4.58594 -3.9086,7.45212 -8.27839,10.79554 -3.27212,2.50357 -7.91807,6.59011 -10.32432,9.0812 -4.2079,4.35626 -4.4006,4.96836 -5.04536,16.02642 -0.63823,17.87978 -3.25777,16.53894 -12.12381,30.63173 -5.3334,4.55646 -1.16917,7.77991 -2.17798,15.09692 -0.56798,4.11959 0.95429,8.6892 -3.68856,5.32447 -1.16757,-5.24877 -2.62323,-1.24882 -1.81559,-21.65373 4.04394,-6.1108 0,0 7.66433,-11.82752 4.2394,-6.54219 5.93788,-8.38919 5.95403,-12.73482 0.01,-2.52447 0.35625,-5.85557 0.7708,-7.40244 1.09952,-4.10284 -1.18997,-3.53365 -8.75221,2.17589 -7.85244,5.92866 -13.21575,7.40293 -16.173,4.44568 -3.41808,-3.41807 -4.61991,-10.53145 -3.49467,-20.68407 0.57148,-5.15625 0.81934,-9.625 0.55081,-9.93056 -0.26853,-0.30555 -1.59467,0.55088 -2.94697,1.90317 -1.97047,1.97049 -2.6,4.81122 -3.17014,14.30556 -0.99859,16.62875 -1.03249,16.71763 -8.10827,21.25814 -16.01977,8.17989 -28.32779,7.00477 -9.16915,-1.28979 z m 69.79443,-43.43395 c 0.62897,-2.08183 0.34073,-2.8125 -1.1095,-2.8125 -1.37082,0 -1.95924,1.20135 -1.95924,4 0,4.27069 1.60764,3.64859 3.06874,-1.1875 z m -11.50624,-14.6875 c 0.17187,-0.6875 -1.375,-1.40336 -3.4375,-1.5908 -3.58624,-0.32592 -3.64304,-0.25695 -1.30055,1.57935 2.60783,2.0443 4.22886,2.04821 4.73805,0.0115 z"
           style="fill:#a09f9f" />
        <path
           sodipodi:nodetypes="cssccsssscssscscsscscsscccscsscsssssssssssscssssscssssssssccssssscscccccssssscsscssss"
           inkscape:connector-curvature="0"
           id="path3349"
           d="m 351.38096,428.85994 c -1.09536,-2.85448 -0.92731,-5.51559 0.3483,-5.51559 1.4152,0 2.62064,6.11796 1.35908,6.89765 -0.52326,0.3234 -1.29158,-0.29854 -1.70738,-1.38206 z m -0.70072,-12.20932 c -0.0304,-1.27528 1.63225,-4.81911 3.69475,-7.87516 2.0625,-3.05604 3.75,-5.89702 3.75,-6.31329 0,-0.41626 1.53569,-2.77023 3.41264,-5.23103 1.95547,-2.56377 3.75224,-6.88403 4.20797,-10.11799 l 0.79535,-5.6438 0.16703,5.12632 c 0.16981,5.21237 -3.92338,14.72955 -8.54736,19.87368 -1.23597,1.375 -3.41225,4.75 -4.83618,7.5 -1.6222,3.13291 -2.60959,4.13415 -2.6442,2.68127 z m -43.18025,-20.80627 c 0.4249,-0.6875 2.00498,-1.24139 3.51127,-1.23086 2.22654,0.0156 2.38808,0.24575 0.86373,1.23086 -2.46265,1.59149 -5.35859,1.59149 -4.375,0 z m 102.76644,-10.56522 c -3.74365,-3.53636 -5.8813,-6.61236 -5.86364,-8.4375 l 0.0278,-2.87228 2.50131,3.125 c 3.1612,3.94942 9.96261,13.75 9.54224,13.75 -0.17395,0 -2.96741,-2.50435 -6.2077,-5.56522 z m -70.18975,-0.16167 c -1.07137,-1.07136 -2.29143,-3.31651 -2.71125,-4.98922 -0.84708,-3.37502 0.0761,-19.23709 1.43161,-24.59639 1.14537,-4.52872 -0.71423,-4.42161 -6.15385,0.35445 -4.43039,3.88993 -6.95895,3.26864 -4.60419,-1.13129 2.02633,-3.7862 8.76974,-8.90951 11.7444,-8.92279 1.49413,-0.007 5.11029,-1.91522 8.03593,-4.24121 2.92563,-2.32599 6.72251,-4.58125 8.4375,-5.01168 2.3891,-0.59963 3.11816,-1.59538 3.11816,-4.2588 0,-5.16256 2.15114,-6.47618 10.6052,-6.47618 7.52179,0 7.67597,-0.072 14.05802,-6.5625 5.81209,-5.91086 6.49052,-7.18311 6.8323,-12.8125 0.3212,-5.29018 0.7634,-6.25 2.87948,-6.25 1.80956,0 2.61096,0.96726 2.90179,3.50239 0.25413,2.21532 1.40252,3.88517 3.125,4.54404 3.69297,1.41261 6.07551,4.39503 10.29819,12.89107 2.30746,4.64265 4.34523,7.1875 5.75533,7.1875 1.20068,0 5.43911,-1.91715 9.41876,-4.26034 3.97964,-2.34318 7.66102,-3.99748 8.18083,-3.67623 1.61084,0.99556 1.03995,2.93657 -0.8637,2.93657 -0.99485,0 -5.52464,2.8125 -10.0662,6.25 -4.54156,3.4375 -8.9955,6.25 -9.89763,6.25 -0.90212,0 -3.1169,-1.16155 -4.92173,-2.58123 -6.31862,-4.97022 -7.69148,0.19281 -2.68064,10.08123 1.71875,3.39179 3.09734,7.45121 3.06352,9.02094 -0.0424,1.96904 -1.39008,0.26608 -4.34601,-5.49176 -2.3565,-4.59019 -4.91682,-8.73658 -5.68961,-9.21419 -2.06733,-1.27768 -5.54095,3.06573 -7.22606,9.03545 -1.05508,3.73771 -2.68142,5.97103 -5.71227,7.8442 -2.33048,1.44032 -7.64413,6.26074 -11.80812,10.71206 -4.16399,4.45131 -8.07916,8.0933 -8.70039,8.0933 -0.62121,0 -3.96486,2.25756 -7.43032,5.0168 -3.46546,2.75924 -8.28653,5.84647 -10.71348,6.86051 -3.9329,1.64328 -4.62444,1.63194 -6.36057,-0.10425 z m 43.13597,-32.62868 c 1.7904,-4.70912 0.97725,-8.4147 -1.96266,-8.94395 -4.05274,-0.72958 -8.125,-5.31285 -8.125,-9.14456 0,-2.69885 -0.72036,-3.68909 -3.1222,-4.29191 -8.0193,-2.01272 -9.68034,4.2559 -1.934,7.29874 5.77147,2.2671 10.04462,8.37817 10.05152,14.37475 0.006,5.09032 3.25433,5.54128 5.09234,0.70693 z m 22.65603,17.73057 c -0.0255,-2.0625 0.23382,-3.05758 0.57624,-2.21129 0.3424,0.84629 0.36323,2.53379 0.0464,3.75 -0.31692,1.21621 -0.59707,0.52379 -0.62255,-1.53871 z m 2.25631,-60 c -1.61469,-1.71875 -3.89386,-3.125 -5.06484,-3.125 -3.99395,0 -5.03546,-2.91033 -2.70537,-7.55973 2.46643,-4.92146 6.62942,-7.39547 12.48865,-7.42184 3.28313,-0.0148 4.37157,-0.69889 5.49853,-3.45593 l 1.40509,-3.4375 1.30528,3.4375 c 1.50287,3.95792 4.06481,4.5068 5.14533,1.10235 0.82458,-2.59801 5.68002,-7.4521 5.67265,-5.67108 -0.002,0.62217 -1.18302,3.06413 -2.62322,5.42658 -2.36643,3.88176 -2.46283,4.7672 -1.00123,9.19591 1.3664,4.14021 1.33117,5.41041 -0.22705,8.18657 -3.89442,6.9384 -14.78759,8.7575 -19.89382,3.32217 z"
           style="fill:#892ca0" />
      </g>
      <g
         transform="translate(-0.50507627,0.03242067)"
         id="g3520">
        <g
           style="font-style:normal;font-weight:normal;font-size:37.16291428px;line-height:125%;font-family:sans-serif;letter-spacing:0px;word-spacing:0px;fill:#b3b3b3;fill-opacity:1;stroke:none;stroke-width:1px;stroke-linecap:butt;stroke-linejoin:miter;stroke-opacity:1"
           id="text3361">
          <path
             d="m 270.71084,502.27681 q 7.57594,0 12.67949,5.05818 5.10355,5.05819 5.10355,12.45267 0,7.32642 -5.10355,12.42997 -5.08087,5.10355 -12.4073,5.10355 -7.41716,0 -12.52071,-5.08086 -5.10355,-5.08087 -5.10355,-12.29389 0,-4.80868 2.31361,-8.9142 2.33629,-4.10552 6.35108,-6.41913 4.0148,-2.33629 8.68738,-2.33629 z m 0.15878,3.26627 q -3.69724,0 -7.00888,1.92801 -3.31163,1.92801 -5.17159,5.19428 -1.85997,3.26627 -1.85997,7.28106 0,5.9428 4.10553,10.04832 4.1282,4.08284 9.93491,4.08284 3.87869,0 7.16765,-1.88264 3.31164,-1.88264 5.14891,-5.14891 1.85996,-3.26627 1.85996,-7.25838 0,-3.96943 -1.85996,-7.16766 -1.83727,-3.2209 -5.19428,-5.14891 -3.357,-1.92801 -7.12228,-1.92801 z"
             style="font-style:normal;font-variant:normal;font-weight:normal;font-stretch:normal;font-size:46.4536438px;font-family:'Century Gothic';-inkscape-font-specification:'Century Gothic';fill:#b3b3b3"
             id="path3563" />
          <path
             d="m 294.70886,511.80344 3.15286,0 0,4.53648 q 1.88265,-2.58579 4.33235,-3.87869 2.4497,-1.2929 5.46647,-1.2929 5.26233,0 9.00493,3.78796 3.7426,3.78797 3.7426,9.11835 0,5.44378 -3.71992,9.25443 -3.69724,3.78797 -8.93688,3.78797 -2.94872,0 -5.4211,-1.22485 -2.47239,-1.22485 -4.46845,-3.65187 l 0,13.26923 -3.15286,0 0,-33.70611 z m 12.70217,2.42702 q -4.1282,0 -6.96351,2.88067 -2.81262,2.88067 -2.81262,7.16765 0,2.81262 1.24753,5.05818 1.27022,2.24557 3.60651,3.56115 2.35898,1.31558 4.96746,1.31558 2.56311,0 4.80868,-1.31558 2.26824,-1.33827 3.6065,-3.71992 1.33827,-2.38166 1.33827,-4.99014 0,-2.63116 -1.33827,-4.99014 -1.31558,-2.35897 -3.56114,-3.65187 -2.24556,-1.31558 -4.89941,-1.31558 z"
             style="font-style:normal;font-variant:normal;font-weight:normal;font-stretch:normal;font-size:46.4536438px;font-family:'Century Gothic';-inkscape-font-specification:'Century Gothic';fill:#b3b3b3"
             id="path3565" />
          <path
             d="m 347.10531,528.29357 2.67652,1.40631 q -1.31558,2.5858 -3.03944,4.17357 -1.72387,1.58777 -3.8787,2.42702 -2.15483,0.81657 -4.87673,0.81657 -6.03353,0 -9.43589,-3.94674 -3.40237,-3.96943 -3.40237,-8.95957 0,-4.69526 2.88067,-8.36982 3.65187,-4.67258 9.77613,-4.67258 6.30572,0 10.07101,4.78599 2.67653,3.37969 2.72189,8.43787 l -22.18343,0 q 0.0907,4.30967 2.74458,7.07692 2.65384,2.74458 6.55522,2.74458 1.88265,0 3.65188,-0.65779 1.79191,-0.65779 3.03944,-1.74655 1.24754,-1.08876 2.69922,-3.51578 z m 0,-6.64595 q -0.63511,-2.54044 -1.85996,-4.06016 -1.20217,-1.51973 -3.19823,-2.44971 -1.99605,-0.92998 -4.19625,-0.92998 -3.62919,0 -6.23767,2.3363 -1.90533,1.70118 -2.88067,5.10355 l 18.37278,0 z"
             style="font-style:normal;font-variant:normal;font-weight:normal;font-stretch:normal;font-size:46.4536438px;font-family:'Century Gothic';-inkscape-font-specification:'Century Gothic';fill:#b3b3b3"
             id="path3567" />
          <path
             d="m 356.54121,511.80344 3.17554,0 0,4.42307 q 1.90533,-2.54043 4.21893,-3.78797 2.31361,-1.27021 5.03551,-1.27021 2.76725,0 4.8994,1.40631 2.15484,1.40631 3.17555,3.78797 1.02071,2.38165 1.02071,7.41716 l 0,12.70216 -3.15286,0 0,-11.77218 q 0,-4.2643 -0.36292,-5.6933 -0.56706,-2.4497 -2.13215,-3.67455 -1.56509,-1.24754 -4.08284,-1.24754 -2.88067,0 -5.1716,1.90533 -2.26824,1.90532 -2.99408,4.71795 -0.45365,1.83727 -0.45365,6.714 l 0,9.05029 -3.17554,0 0,-24.67849 z"
             style="font-style:normal;font-variant:normal;font-weight:normal;font-stretch:normal;font-size:46.4536438px;font-family:'Century Gothic';-inkscape-font-specification:'Century Gothic';fill:#b3b3b3"
             id="path3569" />
          <path
             d="m 385.48401,503.11606 3.33432,0 0,20.14201 q 0,3.58383 0.13609,4.46844 0.24951,1.97337 1.15681,3.31164 0.9073,1.31558 2.78994,2.22288 1.88264,0.88461 3.78797,0.88461 1.65581,0 3.17554,-0.70315 1.51972,-0.70316 2.54043,-1.95069 1.02071,-1.24754 1.49704,-3.01677 0.34024,-1.27022 0.34024,-5.21696 l 0,-20.14201 3.33432,0 0,20.14201 q 0,4.46844 -0.88462,7.2357 -0.86193,2.74457 -3.49309,4.78599 -2.60848,2.04142 -6.3284,2.04142 -4.03748,0 -6.91815,-1.928 -2.88067,-1.92801 -3.85601,-5.10355 -0.61243,-1.95069 -0.61243,-7.03156 l 0,-20.14201 z"
             style="font-style:normal;font-variant:normal;font-weight:normal;font-stretch:normal;font-size:46.4536438px;font-family:'Century Gothic';-inkscape-font-specification:'Century Gothic';fill:#b3b3b3"
             id="path3571" />
          <path
             d="m 415.28874,511.80344 3.15286,0 0,4.53648 q 1.88264,-2.58579 4.33234,-3.87869 2.44971,-1.2929 5.46647,-1.2929 5.26233,0 9.00493,3.78796 3.7426,3.78797 3.7426,9.11835 0,5.44378 -3.71992,9.25443 -3.69723,3.78797 -8.93688,3.78797 -2.94872,0 -5.4211,-1.22485 -2.47239,-1.22485 -4.46844,-3.65187 l 0,13.26923 -3.15286,0 0,-33.70611 z m 12.70216,2.42702 q -4.1282,0 -6.96351,2.88067 -2.81262,2.88067 -2.81262,7.16765 0,2.81262 1.24754,5.05818 1.27021,2.24557 3.6065,3.56115 2.35898,1.31558 4.96746,1.31558 2.56312,0 4.80868,-1.31558 2.26824,-1.33827 3.60651,-3.71992 1.33826,-2.38166 1.33826,-4.99014 0,-2.63116 -1.33826,-4.99014 -1.31559,-2.35897 -3.56115,-3.65187 -2.24556,-1.31558 -4.89941,-1.31558 z"
             style="font-style:normal;font-variant:normal;font-weight:normal;font-stretch:normal;font-size:46.4536438px;font-family:'Century Gothic';-inkscape-font-specification:'Century Gothic';fill:#b3b3b3"
             id="path3573" />
          <path
             d="m 468.16151,511.80344 3.19822,0 0,19.66567 q 0,5.19428 -0.90729,7.59862 -1.24754,3.40237 -4.33235,5.23965 -3.08481,1.83727 -7.41716,1.83727 -3.17554,0 -5.71598,-0.90729 -2.51775,-0.88462 -4.10552,-2.40434 -1.58777,-1.49704 -2.92603,-4.4004 l 3.44773,0 q 1.40631,2.44971 3.62919,3.62919 2.22288,1.17949 5.51183,1.17949 3.24359,0 5.46647,-1.22485 2.24556,-1.20217 3.19823,-3.03945 0.95266,-1.83728 0.95266,-5.92012 l 0,-1.27021 q -1.79191,2.26824 -4.37771,3.49309 -2.5858,1.20217 -5.48915,1.20217 -3.40237,0 -6.39645,-1.6785 -2.99409,-1.70118 -4.62722,-4.55917 -1.63314,-2.85799 -1.63314,-6.28304 0,-3.42504 1.70119,-6.37376 1.70118,-2.9714 4.69526,-4.69527 3.01677,-1.72386 6.35109,-1.72386 2.76725,0 5.14891,1.1568 2.40434,1.13412 4.62722,3.76529 l 0,-4.28698 z m -9.36785,2.42702 q -2.69921,0 -5.01282,1.31558 -2.31361,1.2929 -3.62919,3.60651 -1.31558,2.29092 -1.31558,4.96745 0,4.06016 2.72189,6.71401 2.72189,2.65384 7.05424,2.65384 4.37771,0 7.03156,-2.63116 2.67653,-2.63117 2.67653,-6.91815 0,-2.78994 -1.22486,-4.96745 -1.22485,-2.2002 -3.47041,-3.47042 -2.24556,-1.27021 -4.83136,-1.27021 z"
             style="font-style:normal;font-variant:normal;font-weight:normal;font-stretch:normal;font-size:46.4536438px;font-family:'Century Gothic';-inkscape-font-specification:'Century Gothic';fill:#b3b3b3"
             id="path3575" />
          <path
             d="m 477.00766,511.80344 3.24359,0 0,3.6065 q 1.45168,-2.13215 3.06213,-3.17554 1.61046,-1.06607 3.357,-1.06607 1.31559,0 2.81263,0.83925 l -1.65582,2.67653 q -0.99803,-0.43097 -1.6785,-0.43097 -1.58777,0 -3.06213,1.31558 -1.47436,1.2929 -2.24556,4.03748 -0.58975,2.10946 -0.58975,8.52859 l 0,8.34714 -3.24359,0 0,-24.67849 z"
             style="font-style:normal;font-variant:normal;font-weight:normal;font-stretch:normal;font-size:46.4536438px;font-family:'Century Gothic';-inkscape-font-specification:'Century Gothic';fill:#b3b3b3"
             id="path3577" />
          <path
             d="m 516.76998,511.80344 0,24.67849 -3.13017,0 0,-4.24161 q -1.99606,2.42702 -4.49113,3.65187 -2.47238,1.22485 -5.4211,1.22485 -5.23965,0 -8.95957,-3.78797 -3.69724,-3.81065 -3.69724,-9.25443 0,-5.33038 3.74261,-9.11835 3.7426,-3.78796 9.00493,-3.78796 3.03944,0 5.48915,1.2929 2.47239,1.2929 4.33235,3.87869 l 0,-4.53648 3.13017,0 z m -12.70217,2.42702 q -2.65384,0 -4.8994,1.31558 -2.24557,1.2929 -3.58383,3.65187 -1.31558,2.35898 -1.31558,4.99014 0,2.60848 1.33826,4.99014 1.33827,2.38165 3.58383,3.71992 2.26824,1.31558 4.85404,1.31558 2.60848,0 4.94477,-1.31558 2.3363,-1.31558 3.58383,-3.56115 1.27022,-2.24556 1.27022,-5.05818 0,-4.28698 -2.83531,-7.16765 -2.81262,-2.88067 -6.94083,-2.88067 z"
             style="font-style:normal;font-variant:normal;font-weight:normal;font-stretch:normal;font-size:46.4536438px;font-family:'Century Gothic';-inkscape-font-specification:'Century Gothic';fill:#b3b3b3"
             id="path3579" />
          <path
             d="m 548.57078,502.27681 0,34.20512 -3.13018,0 0,-4.24161 q -1.99605,2.42702 -4.49112,3.65187 -2.47239,1.22485 -5.42111,1.22485 -5.23964,0 -8.95956,-3.78797 -3.69724,-3.81065 -3.69724,-9.25443 0,-5.33038 3.7426,-9.11835 3.74261,-3.78796 9.00493,-3.78796 3.03945,0 5.48916,1.2929 2.47238,1.2929 4.33234,3.87869 l 0,-14.06311 3.13018,0 z m -12.70217,11.95365 q -2.65384,0 -4.89941,1.31558 -2.24556,1.2929 -3.58382,3.65187 -1.31558,2.35898 -1.31558,4.99014 0,2.60848 1.33826,4.99014 1.33826,2.38165 3.58383,3.71992 2.26824,1.31558 4.85404,1.31558 2.60848,0 4.94477,-1.31558 2.33629,-1.31558 3.58383,-3.56115 1.27021,-2.24556 1.27021,-5.05818 0,-4.28698 -2.8353,-7.16765 -2.81262,-2.88067 -6.94083,-2.88067 z"
             style="font-style:normal;font-variant:normal;font-weight:normal;font-stretch:normal;font-size:46.4536438px;font-family:'Century Gothic';-inkscape-font-specification:'Century Gothic';fill:#b3b3b3"
             id="path3581" />
          <path
             d="m 576.56089,528.29357 2.67653,1.40631 q -1.31558,2.5858 -3.03944,4.17357 -1.72387,1.58777 -3.8787,2.42702 -2.15483,0.81657 -4.87673,0.81657 -6.03353,0 -9.43589,-3.94674 -3.40237,-3.96943 -3.40237,-8.95957 0,-4.69526 2.88067,-8.36982 3.65187,-4.67258 9.77613,-4.67258 6.30572,0 10.07101,4.78599 2.67653,3.37969 2.72189,8.43787 l -22.18343,0 q 0.0907,4.30967 2.74458,7.07692 2.65384,2.74458 6.55522,2.74458 1.88265,0 3.65188,-0.65779 1.79191,-0.65779 3.03944,-1.74655 1.24754,-1.08876 2.69921,-3.51578 z m 0,-6.64595 q -0.6351,-2.54044 -1.85996,-4.06016 -1.20217,-1.51973 -3.19822,-2.44971 -1.99606,-0.92998 -4.19625,-0.92998 -3.62919,0 -6.23767,2.3363 -1.90533,1.70118 -2.88067,5.10355 l 18.37277,0 z"
             style="font-style:normal;font-variant:normal;font-weight:normal;font-stretch:normal;font-size:46.4536438px;font-family:'Century Gothic';-inkscape-font-specification:'Century Gothic';fill:#b3b3b3"
             id="path3583" />
        </g>
        <g
           id="g3504"
           transform="matrix(0.82036215,0,0,0.82036215,68.971038,101.26316)">
          <g
             id="g3481"
             transform="matrix(0.94851859,0,0,0.94851859,22.465125,28.648827)">
            <path
               d="m 383.94491,550.53962 0,-1.12085 6.32534,0 0,1.12085 -2.5709,0 0,10.40899 -1.17571,0 0,-10.40899 -2.57873,0 z"
               style="font-style:normal;font-variant:normal;font-weight:normal;font-stretch:normal;font-size:16.05241585px;line-height:125%;font-family:'Century Gothic';-inkscape-font-specification:'Century Gothic';letter-spacing:0px;word-spacing:0px;fill:#b3b3b3;fill-opacity:1;stroke:none;stroke-width:1px;stroke-linecap:butt;stroke-linejoin:miter;stroke-opacity:1"
               id="path3586"
               inkscape:connector-curvature="0" />
            <path
               d="m 391.71246,549.12876 1.09733,0 0,4.82043 q 0.66624,-0.87787 1.46572,-1.30896 0.79949,-0.43893 1.73222,-0.43893 0.95625,0 1.69303,0.48596 0.74462,0.48596 1.09733,1.30896 0.35272,0.81516 0.35272,2.56306 l 0,4.38933 -1.09734,0 0,-4.06797 q 0,-1.47356 -0.11757,-1.96736 -0.20379,-0.84652 -0.74462,-1.26977 -0.53299,-0.4311 -1.40301,-0.4311 -0.99544,0 -1.78709,0.6584 -0.78381,0.6584 -1.03463,1.63032 -0.15676,0.62705 -0.15676,2.32008 l 0,3.1274 -1.09733,0 0,-11.81985 z"
               style="font-style:normal;font-variant:normal;font-weight:normal;font-stretch:normal;font-size:16.05241585px;line-height:125%;font-family:'Century Gothic';-inkscape-font-specification:'Century Gothic';letter-spacing:0px;word-spacing:0px;fill:#b3b3b3;fill-opacity:1;stroke:none;stroke-width:1px;stroke-linecap:butt;stroke-linejoin:miter;stroke-opacity:1"
               id="path3588"
               inkscape:connector-curvature="0" />
            <path
               d="m 408.67409,558.11906 0.9249,0.48596 q -0.45461,0.89354 -1.05031,1.44221 -0.59569,0.54866 -1.34031,0.83867 -0.74462,0.28218 -1.68519,0.28218 -2.08494,0 -3.26065,-1.36383 -1.17571,-1.37167 -1.17571,-3.09605 0,-1.62249 0.99543,-2.89226 1.26194,-1.61464 3.37822,-1.61464 2.17899,0 3.48012,1.65383 0.92489,1.16788 0.94057,2.91577 l -7.66566,0 q 0.0313,1.48924 0.94841,2.44549 0.91706,0.94841 2.26521,0.94841 0.65056,0 1.26193,-0.22731 0.61921,-0.2273 1.05031,-0.60353 0.43109,-0.37623 0.93273,-1.2149 z m 0,-2.29656 q -0.21947,-0.87787 -0.64272,-1.40302 -0.41542,-0.52516 -1.10517,-0.84652 -0.68976,-0.32136 -1.45005,-0.32136 -1.2541,0 -2.15548,0.80732 -0.6584,0.58786 -0.99544,1.76358 l 6.34886,0 z"
               style="font-style:normal;font-variant:normal;font-weight:normal;font-stretch:normal;font-size:16.05241585px;line-height:125%;font-family:'Century Gothic';-inkscape-font-specification:'Century Gothic';letter-spacing:0px;word-spacing:0px;fill:#b3b3b3;fill-opacity:1;stroke:none;stroke-width:1px;stroke-linecap:butt;stroke-linejoin:miter;stroke-opacity:1"
               id="path3590"
               inkscape:connector-curvature="0" />
            <path
               d="m 462.12989,549.12876 q 2.61792,0 4.3815,1.7479 1.76357,1.74789 1.76357,4.30311 0,2.53171 -1.76357,4.29528 -1.75574,1.76357 -4.28744,1.76357 -2.56306,0 -4.32663,-1.75574 -1.76357,-1.75573 -1.76357,-4.24824 0,-1.66168 0.79948,-3.08037 0.80733,-1.4187 2.19467,-2.21818 1.38734,-0.80733 3.00199,-0.80733 z m 0.0549,1.12869 q -1.27761,0 -2.42197,0.66624 -1.14437,0.66623 -1.78709,1.79492 -0.64272,1.12869 -0.64272,2.51603 0,2.05358 1.41869,3.47227 1.42654,1.41086 3.43309,1.41086 1.34031,0 2.47684,-0.65056 1.14436,-0.65056 1.77924,-1.77925 0.64273,-1.12868 0.64273,-2.50819 0,-1.37166 -0.64273,-2.47684 -0.63488,-1.11301 -1.79492,-1.77924 -1.16004,-0.66624 -2.46116,-0.66624 z"
               style="font-style:normal;font-variant:normal;font-weight:normal;font-stretch:normal;font-size:16.05241585px;line-height:125%;font-family:'Century Gothic';-inkscape-font-specification:'Century Gothic';letter-spacing:0px;word-spacing:0px;fill:#b3b3b3;fill-opacity:1;stroke:none;stroke-width:1px;stroke-linecap:butt;stroke-linejoin:miter;stroke-opacity:1"
               id="path3592"
               inkscape:connector-curvature="0" />
            <path
               d="m 478.91909,549.12876 0,11.81985 -1.08166,0 0,-1.46573 q -0.68975,0.83868 -1.55194,1.26194 -0.85436,0.42326 -1.87331,0.42326 -1.8106,0 -3.09604,-1.30897 -1.27761,-1.3168 -1.27761,-3.19794 0,-1.84195 1.29328,-3.15091 1.29329,-1.30896 3.11172,-1.30896 1.05031,0 1.89682,0.44677 0.85436,0.44677 1.49708,1.34031 l 0,-4.85962 1.08166,0 z m -4.38934,4.13068 q -0.91705,0 -1.69302,0.45461 -0.77598,0.44677 -1.23842,1.26193 -0.45461,0.81516 -0.45461,1.72438 0,0.90138 0.46244,1.72438 0.46245,0.823 1.23842,1.28545 0.78381,0.45461 1.67736,0.45461 0.90138,0 1.7087,-0.45461 0.80732,-0.45461 1.23842,-1.23058 0.43893,-0.77597 0.43893,-1.7479 0,-1.4814 -0.97976,-2.47683 -0.97192,-0.99544 -2.39846,-0.99544 z"
               style="font-style:normal;font-variant:normal;font-weight:normal;font-stretch:normal;font-size:16.05241585px;line-height:125%;font-family:'Century Gothic';-inkscape-font-specification:'Century Gothic';letter-spacing:0px;word-spacing:0px;fill:#b3b3b3;fill-opacity:1;stroke:none;stroke-width:1px;stroke-linecap:butt;stroke-linejoin:miter;stroke-opacity:1"
               id="path3594"
               inkscape:connector-curvature="0" />
            <path
               d="m 485.44822,552.2013 q 1.96736,0 3.26065,1.42653 1.17571,1.30112 1.17571,3.08037 0,1.78709 -1.24626,3.1274 -1.23842,1.33248 -3.1901,1.33248 -1.95952,0 -3.20578,-1.33248 -1.23842,-1.34031 -1.23842,-3.1274 0,-1.77141 1.17571,-3.07253 1.29329,-1.43437 3.26849,-1.43437 z m 0,1.07381 q -1.36383,0 -2.34359,1.01112 -0.97976,1.01111 -0.97976,2.44548 0,0.9249 0.44677,1.72438 0.44677,0.79949 1.20706,1.23842 0.7603,0.4311 1.66952,0.4311 0.90922,0 1.66951,-0.4311 0.7603,-0.43893 1.20707,-1.23842 0.44677,-0.79948 0.44677,-1.72438 0,-1.43437 -0.9876,-2.44548 -0.97976,-1.01112 -2.33575,-1.01112 z"
               style="font-style:normal;font-variant:normal;font-weight:normal;font-stretch:normal;font-size:16.05241585px;line-height:125%;font-family:'Century Gothic';-inkscape-font-specification:'Century Gothic';letter-spacing:0px;word-spacing:0px;fill:#b3b3b3;fill-opacity:1;stroke:none;stroke-width:1px;stroke-linecap:butt;stroke-linejoin:miter;stroke-opacity:1"
               id="path3596"
               inkscape:connector-curvature="0" />
            <path
               d="m 495.95126,552.2013 q 1.96736,0 3.26065,1.42653 1.17571,1.30112 1.17571,3.08037 0,1.78709 -1.24625,3.1274 -1.23842,1.33248 -3.19011,1.33248 -1.95952,0 -3.20578,-1.33248 -1.23842,-1.34031 -1.23842,-3.1274 0,-1.77141 1.17572,-3.07253 1.29328,-1.43437 3.26848,-1.43437 z m 0,1.07381 q -1.36383,0 -2.34359,1.01112 -0.97976,1.01111 -0.97976,2.44548 0,0.9249 0.44677,1.72438 0.44677,0.79949 1.20707,1.23842 0.76029,0.4311 1.66951,0.4311 0.90922,0 1.66952,-0.4311 0.76029,-0.43893 1.20706,-1.23842 0.44677,-0.79948 0.44677,-1.72438 0,-1.43437 -0.9876,-2.44548 -0.97976,-1.01112 -2.33575,-1.01112 z"
               style="font-style:normal;font-variant:normal;font-weight:normal;font-stretch:normal;font-size:16.05241585px;line-height:125%;font-family:'Century Gothic';-inkscape-font-specification:'Century Gothic';letter-spacing:0px;word-spacing:0px;fill:#b3b3b3;fill-opacity:1;stroke:none;stroke-width:1px;stroke-linecap:butt;stroke-linejoin:miter;stroke-opacity:1"
               id="path3598"
               inkscape:connector-curvature="0" />
            <path
               d="m 583.04183,549.41877 1.16004,0 0,10.41683 4.42853,0 0,1.11301 -5.58857,0 0,-11.52984 z"
               style="font-style:normal;font-variant:normal;font-weight:normal;font-stretch:normal;font-size:16.05241585px;line-height:125%;font-family:'Century Gothic';-inkscape-font-specification:'Century Gothic';letter-spacing:0px;word-spacing:0px;fill:#b3b3b3;fill-opacity:1;stroke:none;stroke-width:1px;stroke-linecap:butt;stroke-linejoin:miter;stroke-opacity:1"
               id="path3612"
               inkscape:connector-curvature="0" />
            <path
               d="m 590.67614,548.9093 q 0.37623,0 0.64272,0.26649 0.2665,0.2665 0.2665,0.64273 0,0.36839 -0.2665,0.63488 -0.26649,0.2665 -0.64272,0.2665 -0.36839,0 -0.63489,-0.2665 -0.26649,-0.26649 -0.26649,-0.63488 0,-0.37623 0.26649,-0.64273 0.2665,-0.26649 0.63489,-0.26649 z m -0.54867,3.51146 1.10517,0 0,8.52785 -1.10517,0 0,-8.52785 z"
               style="font-style:normal;font-variant:normal;font-weight:normal;font-stretch:normal;font-size:16.05241585px;line-height:125%;font-family:'Century Gothic';-inkscape-font-specification:'Century Gothic';letter-spacing:0px;word-spacing:0px;fill:#b3b3b3;fill-opacity:1;stroke:none;stroke-width:1px;stroke-linecap:butt;stroke-linejoin:miter;stroke-opacity:1"
               id="path3614"
               inkscape:connector-curvature="0" />
            <path
               d="m 593.62326,560.94861 0,-11.81985 1.0895,0 0,4.75773 q 0.68975,-0.84652 1.5441,-1.26194 0.85436,-0.42325 1.87331,-0.42325 1.8106,0 3.08821,1.3168 1.28544,1.30896 1.28544,3.18226 0,1.84979 -1.29328,3.15875 -1.29329,1.30897 -3.11172,1.30897 -1.04247,0 -1.88899,-0.44678 -0.84651,-0.44677 -1.49707,-1.34031 l 0,1.56762 -1.0895,0 z m 4.38934,-0.83868 q 0.91705,0 1.69302,-0.44677 0.77598,-0.45461 1.23059,-1.26977 0.46244,-0.81516 0.46244,-1.72438 0,-0.90922 -0.46244,-1.73222 -0.46245,-0.823 -1.24626,-1.27761 -0.77597,-0.46245 -1.66168,-0.46245 -0.90138,0 -1.71654,0.46245 -0.80732,0.45461 -1.24626,1.23058 -0.43109,0.77597 -0.43109,1.7479 0,1.4814 0.97192,2.47683 0.97976,0.99544 2.4063,0.99544 z"
               style="font-style:normal;font-variant:normal;font-weight:normal;font-stretch:normal;font-size:16.05241585px;line-height:125%;font-family:'Century Gothic';-inkscape-font-specification:'Century Gothic';letter-spacing:0px;word-spacing:0px;fill:#b3b3b3;fill-opacity:1;stroke:none;stroke-width:1px;stroke-linecap:butt;stroke-linejoin:miter;stroke-opacity:1"
               id="path3616"
               inkscape:connector-curvature="0" />
            <path
               d="m 604.07929,552.42076 1.12085,0 0,1.24626 q 0.50163,-0.73678 1.05814,-1.09733 0.5565,-0.36839 1.16004,-0.36839 0.45461,0 0.97192,0.29001 l -0.57218,0.92489 q -0.34488,-0.14892 -0.58002,-0.14892 -0.54867,0 -1.05814,0.45461 -0.50948,0.44677 -0.77597,1.39518 -0.20379,0.72894 -0.20379,2.94712 l 0,2.88442 -1.12085,0 0,-8.52785 z"
               style="font-style:normal;font-variant:normal;font-weight:normal;font-stretch:normal;font-size:16.05241585px;line-height:125%;font-family:'Century Gothic';-inkscape-font-specification:'Century Gothic';letter-spacing:0px;word-spacing:0px;fill:#b3b3b3;fill-opacity:1;stroke:none;stroke-width:1px;stroke-linecap:butt;stroke-linejoin:miter;stroke-opacity:1"
               id="path3618"
               inkscape:connector-curvature="0" />
            <path
               d="m 617.81946,552.42076 0,8.52785 -1.08165,0 0,-1.46573 q -0.68976,0.83868 -1.55195,1.26194 -0.85435,0.42326 -1.8733,0.42326 -1.8106,0 -3.09605,-1.30897 -1.27761,-1.3168 -1.27761,-3.19794 0,-1.84195 1.29329,-3.15091 1.29328,-1.30896 3.11172,-1.30896 1.05031,0 1.89682,0.44677 0.85435,0.44677 1.49708,1.34031 l 0,-1.56762 1.08165,0 z m -4.38933,0.83868 q -0.91706,0 -1.69303,0.45461 -0.77597,0.44677 -1.23842,1.26193 -0.45461,0.81516 -0.45461,1.72438 0,0.90138 0.46245,1.72438 0.46245,0.823 1.23842,1.28545 0.78381,0.45461 1.67735,0.45461 0.90138,0 1.70871,-0.45461 0.80732,-0.45461 1.23842,-1.23058 0.43893,-0.77597 0.43893,-1.7479 0,-1.4814 -0.97976,-2.47683 -0.97193,-0.99544 -2.39846,-0.99544 z"
               style="font-style:normal;font-variant:normal;font-weight:normal;font-stretch:normal;font-size:16.05241585px;line-height:125%;font-family:'Century Gothic';-inkscape-font-specification:'Century Gothic';letter-spacing:0px;word-spacing:0px;fill:#b3b3b3;fill-opacity:1;stroke:none;stroke-width:1px;stroke-linecap:butt;stroke-linejoin:miter;stroke-opacity:1"
               id="path3620"
               inkscape:connector-curvature="0" />
            <path
               d="m 619.88088,552.42076 1.12085,0 0,1.24626 q 0.50163,-0.73678 1.05814,-1.09733 0.5565,-0.36839 1.16004,-0.36839 0.45461,0 0.97192,0.29001 l -0.57218,0.92489 q -0.34488,-0.14892 -0.58002,-0.14892 -0.54867,0 -1.05814,0.45461 -0.50948,0.44677 -0.77597,1.39518 -0.20379,0.72894 -0.20379,2.94712 l 0,2.88442 -1.12085,0 0,-8.52785 z"
               style="font-style:normal;font-variant:normal;font-weight:normal;font-stretch:normal;font-size:16.05241585px;line-height:125%;font-family:'Century Gothic';-inkscape-font-specification:'Century Gothic';letter-spacing:0px;word-spacing:0px;fill:#b3b3b3;fill-opacity:1;stroke:none;stroke-width:1px;stroke-linecap:butt;stroke-linejoin:miter;stroke-opacity:1"
               id="path3622"
               inkscape:connector-curvature="0" />
            <path
               d="m 624.2075,552.42076 1.16004,0 2.93145,6.56832 2.84523,-6.56832 1.16787,0 -5.08692,11.64741 -1.16004,0 1.646,-3.76229 -3.50363,-7.88512 z"
               style="font-style:normal;font-variant:normal;font-weight:normal;font-stretch:normal;font-size:16.05241585px;line-height:125%;font-family:'Century Gothic';-inkscape-font-specification:'Century Gothic';letter-spacing:0px;word-spacing:0px;fill:#b3b3b3;fill-opacity:1;stroke:none;stroke-width:1px;stroke-linecap:butt;stroke-linejoin:miter;stroke-opacity:1"
               id="path3624"
               inkscape:connector-curvature="0" />
            <path
               inkscape:connector-curvature="0"
               id="path3480"
               d="m 422.48749,561.13689 c -1.14093,-0.25562 -1.69446,-0.5475 -2.57156,-1.35598 -1.2134,-1.11847 -1.7158,-2.39529 -1.62031,-4.11792 0.0918,-1.65575 0.52073,-2.60761 1.68676,-3.74302 0.62375,-0.60737 0.74841,-0.80673 0.44406,-0.71013 -0.53998,0.17138 -1.20649,-0.18034 -1.20649,-0.63668 0,-0.19345 0.17927,-0.57963 0.39837,-0.85817 0.3025,-0.38457 0.56845,-0.50573 1.1052,-0.5035 0.38875,0.002 0.83117,0.0816 0.98315,0.17779 0.18656,0.11805 0.42092,0.0611 0.7214,-0.17525 0.3764,-0.29607 0.73119,-0.33984 2.29927,-0.28365 1.79243,0.0642 1.87564,0.0872 2.49809,0.69053 0.64808,0.62815 0.81969,1.18617 0.43745,1.42241 -0.11354,0.0702 -0.40164,-0.0558 -0.64024,-0.27995 -0.42557,-0.39981 -0.44007,-0.40061 -0.76461,-0.042 -0.31697,0.35026 -0.30215,0.38325 0.35463,0.78916 0.75403,0.46602 1.73885,1.77174 1.93962,2.57164 0.19229,0.76615 0.41392,0.7809 0.6572,0.0438 0.63237,-1.91612 2.61775,-3.37467 4.79137,-3.51997 1.1477,-0.0767 1.38746,-0.0237 2.51784,0.5563 1.44968,0.7439 1.91568,1.37914 1.62396,2.21373 -0.26836,0.76774 -1.14324,0.82305 -2.29959,0.14538 -1.62128,-0.95013 -3.5555,-0.35766 -4.21523,1.29116 -0.42109,1.0524 -0.24261,2.10822 0.4992,2.9531 1.03872,1.18303 2.43149,1.319 3.85582,0.37643 0.85417,-0.56527 1.51094,-0.60737 1.94761,-0.12485 0.69164,0.76425 0.32246,1.71096 -0.96038,2.46276 -1.28186,0.75122 -3.42517,0.86523 -4.83818,0.25737 -1.20631,-0.51894 -2.53595,-1.91668 -2.91454,-3.06381 l -0.26516,-0.80345 -0.51625,1.1186 c -0.28394,0.61522 -0.80869,1.39527 -1.16612,1.73342 -1.19908,1.13444 -3.28255,1.75081 -4.78234,1.41479 z m 2.61219,-2.91201 c 1.21725,-0.73854 1.58065,-2.80502 0.70382,-4.00228 -0.45869,-0.62631 -1.50764,-1.16929 -2.25886,-1.16929 -0.75524,0 -1.80083,0.54393 -2.26592,1.17875 -0.5072,0.69229 -0.64202,2.06652 -0.27246,2.77712 0.87259,1.67785 2.52358,2.16818 4.09342,1.2157 z m 16.26241,2.40309 c -3.41343,-1.70098 -3.9199,-6.28004 -0.97354,-8.80201 2.11592,-1.81115 5.16112,-1.6429 7.12355,0.39358 1.28514,1.33364 1.49111,2.0728 1.49591,5.36833 0.004,2.56996 -0.0359,2.93772 -0.34728,3.21949 -0.47862,0.43314 -1.28693,0.40018 -1.7253,-0.0703 l -0.3619,-0.38846 -0.84689,0.38424 c -1.26786,0.57522 -3.08758,0.53152 -4.36455,-0.10482 z m 3.62109,-2.24148 c 1.12607,-0.56784 1.57799,-1.42103 1.477,-2.78849 -0.20053,-2.71532 -3.70528,-3.50227 -5.13732,-1.15353 -0.47812,0.78417 -0.49173,1.96311 -0.0328,2.83982 0.36511,0.69749 1.69422,1.53467 2.43643,1.53467 0.21949,0 0.78499,-0.19461 1.25668,-0.43247 z"
               style="fill:#ebd5e5" />
            <path
               inkscape:connector-curvature="0"
               id="path3478"
               d="m 422.39139,560.95704 c -2.97836,-0.77421 -4.61196,-3.64119 -3.76571,-6.60885 0.30303,-1.06269 1.47286,-2.48442 2.49072,-3.02706 l 0.69836,-0.37232 -1.15325,0.0429 -1.15325,0.0429 0,-0.55588 c 0,-0.38132 0.16442,-0.67864 0.52356,-0.94678 0.45513,-0.3398 0.6152,-0.36277 1.22461,-0.17574 0.56107,0.1722 0.78538,0.1599 1.12341,-0.0616 0.44837,-0.29379 0.5799,-0.30485 2.73504,-0.22998 1.16714,0.0406 1.45664,0.12142 1.89168,0.5284 0.2825,0.26428 0.59592,0.63316 0.69649,0.81973 0.29901,0.55471 -0.34956,0.64985 -0.90065,0.13212 -0.41862,-0.39327 -0.47074,-0.40382 -0.47074,-0.0953 0,0.28918 -0.11203,0.32878 -0.67273,0.23779 -0.81817,-0.13277 -0.88852,0.13825 -0.10665,0.41082 1.39414,0.486 2.83764,2.43239 3.18372,4.2929 0.17837,0.9589 -0.32792,2.61807 -1.11543,3.65539 -1.12236,1.47839 -3.52075,2.35469 -5.22918,1.91059 z m 2.78711,-2.57055 c 1.79244,-1.22349 1.75646,-3.66687 -0.0741,-5.03359 -0.73545,-0.54909 -2.38404,-0.54909 -3.11949,0 -1.29606,0.96765 -1.68557,2.21516 -1.13871,3.64709 0.45325,1.18681 1.39669,1.81897 2.71465,1.81897 0.70469,0 1.16399,-0.12279 1.61767,-0.43247 z m 7.38665,2.40128 c -1.63327,-0.58424 -2.55781,-1.49551 -3.18085,-3.13523 -0.6132,-1.61381 -0.43354,-3.03633 0.58664,-4.64499 1.04605,-1.64945 3.34589,-2.64151 5.20126,-2.2436 1.88728,0.40475 3.3623,1.77978 2.87864,2.6835 -0.33763,0.63085 -1.06774,0.67032 -1.92353,0.10399 -1.11826,-0.74003 -2.19363,-0.82921 -3.24033,-0.26873 -2.69322,1.44217 -1.71166,5.54012 1.32521,5.5327 0.47572,-0.001 1.04826,-0.10896 1.27231,-0.23954 1.52694,-0.88995 1.61467,-0.92162 1.99256,-0.71938 1.1273,0.60331 0.81716,1.73531 -0.69832,2.54889 -1.31851,0.70783 -2.90204,0.85154 -4.21359,0.38239 z m 9.48253,0.0218 c -4.44083,-1.53659 -4.59722,-7.77273 -0.24326,-9.70036 2.51359,-1.11285 5.36812,0.0387 6.67606,2.69309 0.37773,0.7666 0.4444,1.24704 0.50152,3.61401 0.0658,2.72502 0.065,2.73077 -0.43566,3.23142 -0.55941,0.55941 -1.14336,0.51731 -1.64882,-0.11887 -0.28255,-0.35562 -0.30586,-0.35492 -1.08937,0.0327 -1.09171,0.54013 -2.62408,0.64118 -3.76047,0.24798 z m 3.06597,-2.31164 c 1.7893,-0.84907 2.08149,-3.48497 0.53667,-4.84133 -1.76707,-1.55151 -4.46555,-0.54489 -4.81671,1.79679 -0.10759,0.71747 -0.0481,1.04196 0.32337,1.76336 0.76158,1.47903 2.41292,2.01374 3.95667,1.28118 z"
               style="fill:#d1d1d1" />
            <path
               inkscape:connector-curvature="0"
               id="path3476"
               d="m 422.39139,560.95552 c -3.00827,-0.78993 -4.62553,-3.74502 -3.71423,-6.78668 0.29781,-0.994 1.52398,-2.364 2.63272,-2.94151 0.94938,-0.49451 0.67308,-0.64033 -0.54913,-0.28981 -1.25563,0.36011 -1.7714,-0.24161 -0.95669,-1.1161 0.42486,-0.45603 1.49036,-0.57581 1.85736,-0.20881 0.15434,0.15434 0.36729,0.0969 0.78435,-0.2114 0.52721,-0.38978 0.68049,-0.40932 1.93835,-0.24701 0.75123,0.0969 1.47487,0.10889 1.60809,0.0266 0.23497,-0.14522 1.6849,1.07009 1.6849,1.41225 0,0.28336 -0.45232,0.15642 -0.88243,-0.24765 l -0.42669,-0.40085 -0.12734,0.40123 c -0.1296,0.40832 -0.1728,0.41055 -1.54276,0.0797 -0.26613,-0.0643 -0.20698,0.0296 0.1922,0.30491 0.31715,0.21876 0.67539,0.39832 0.7961,0.39901 0.12071,7.7e-4 0.64955,0.38795 1.1752,0.86055 2.87225,2.58241 2.32041,6.81072 -1.1178,8.56476 -0.83231,0.42461 -2.50156,0.62422 -3.3522,0.40085 z m 2.94485,-2.65856 c 0.80304,-0.59956 1.22175,-1.56862 1.13019,-2.6157 -0.14424,-1.64935 -1.29734,-2.72465 -2.92179,-2.72465 -2.15973,0 -3.48597,1.98132 -2.70139,4.03571 0.68899,1.80409 2.94617,2.45951 4.49299,1.30464 z m 7.52925,2.4567 c -1.32396,-0.40273 -2.51458,-1.41145 -3.19105,-2.70353 -0.49996,-0.95495 -0.49524,-3.29045 0.009,-4.30612 1.27557,-2.57085 4.39877,-3.63278 6.8156,-2.31737 1.16679,0.63505 1.64834,1.22963 1.46464,1.80842 -0.20975,0.66087 -0.87811,0.66197 -2.12544,0.004 -1.34548,-0.71029 -2.18822,-0.6929 -3.33933,0.0689 -0.87924,0.58186 -1.36175,1.53044 -1.36175,2.67709 0,2.26795 2.64033,3.77861 4.61599,2.64103 1.46908,-0.84589 1.50429,-0.8547 1.91831,-0.48002 0.54982,0.49759 0.47772,0.99483 -0.23948,1.65137 -1.0181,0.932 -3.16724,1.38231 -4.56619,0.95677 z m 9.22724,-0.10423 c -1.9695,-0.63778 -3.3488,-2.62301 -3.32682,-4.78831 0.007,-0.64605 0.1415,-1.48365 0.29987,-1.86134 0.65174,-1.55429 2.35465,-2.85463 4.12507,-3.1499 1.36238,-0.22722 2.85208,0.3287 4.02276,1.5012 1.32512,1.32719 1.60641,2.29235 1.60641,5.51194 0,2.11394 -0.0462,2.47586 -0.3515,2.75213 -0.48398,0.438 -0.79146,0.39988 -1.38849,-0.17211 l -0.51168,-0.49022 -0.69862,0.4122 c -0.89597,0.52863 -2.62156,0.65857 -3.777,0.28441 z m 3.00346,-1.95095 c 0.80732,-0.3831 1.34802,-1.04514 1.63449,-2.00129 0.6422,-2.14347 -1.38593,-4.32826 -3.63171,-3.91225 -0.95049,0.17607 -2.05557,1.28234 -2.34144,2.34396 -0.68557,2.54603 1.94125,4.70722 4.33866,3.56958 z"
               style="fill:#d8abcc" />
            <path
               inkscape:connector-curvature="0"
               id="path3474"
               d="m 421.72895,560.60116 c -1.24244,-0.43866 -2.59785,-1.86872 -2.97506,-3.13893 -0.37908,-1.27649 -0.37934,-1.77542 -0.002,-3.04743 0.36747,-1.2374 1.48802,-2.5148 2.74176,-3.12553 1.04591,-0.50949 0.69864,-0.70806 -0.64612,-0.36944 -1.37726,0.3468 -1.88881,-0.19148 -1.04388,-1.09841 0.42486,-0.45603 1.49036,-0.57581 1.85736,-0.20881 0.15434,0.15434 0.36729,0.0969 0.78435,-0.2114 0.52721,-0.38978 0.68049,-0.40932 1.93836,-0.24701 0.75123,0.0969 1.47486,0.10889 1.60808,0.0266 0.23497,-0.14522 1.68491,1.07009 1.68491,1.41225 0,0.28336 -0.45232,0.15642 -0.88243,-0.24765 l -0.42669,-0.40085 -0.12735,0.40123 c -0.1284,0.40458 -0.28448,0.41215 -1.51878,0.0737 -0.63917,-0.17527 -0.14246,0.30895 0.81422,0.79374 1.96793,0.99722 3.26918,3.18719 3.04059,5.11722 -0.39698,3.35188 -3.66948,5.39287 -6.84772,4.27075 z m 3.18538,-1.90268 c 1.84903,-0.87743 2.30726,-3.33469 0.91021,-4.88106 -0.90835,-1.00543 -2.06955,-1.31839 -3.23719,-0.87246 -1.01748,0.38858 -1.74306,1.18636 -2.02236,2.22358 -0.66936,2.48582 1.99416,4.64754 4.34934,3.52994 z m 7.95116,2.05518 c -1.32396,-0.40273 -2.51458,-1.41145 -3.19105,-2.70353 -0.49996,-0.95495 -0.49524,-3.29045 0.009,-4.30612 1.27557,-2.57085 4.39877,-3.63278 6.8156,-2.31737 1.16679,0.63505 1.64834,1.22963 1.46464,1.80842 -0.20975,0.66087 -0.87811,0.66197 -2.12544,0.004 -1.34548,-0.71029 -2.18822,-0.6929 -3.33933,0.0689 -0.87924,0.58186 -1.36175,1.53044 -1.36175,2.67709 0,2.26795 2.64033,3.77861 4.61599,2.64103 1.46908,-0.84589 1.50429,-0.8547 1.91831,-0.48002 0.54982,0.49759 0.47772,0.99483 -0.23948,1.65137 -1.0181,0.932 -3.16724,1.38231 -4.56619,0.95677 z m 9.22724,-0.10423 c -1.9695,-0.63778 -3.3488,-2.62301 -3.32682,-4.78831 0.007,-0.64605 0.1415,-1.48365 0.29987,-1.86134 0.65174,-1.55429 2.35465,-2.85463 4.12507,-3.1499 1.36238,-0.22722 2.85208,0.3287 4.02276,1.5012 1.32512,1.32719 1.60641,2.29235 1.60641,5.51194 0,2.11394 -0.0462,2.47586 -0.3515,2.75213 -0.48398,0.438 -0.79146,0.39988 -1.38849,-0.17211 l -0.51168,-0.49022 -0.69862,0.4122 c -0.89597,0.52863 -2.62156,0.65857 -3.777,0.28441 z m 3.00346,-1.95095 c 0.80732,-0.3831 1.34802,-1.04514 1.63449,-2.00129 0.6422,-2.14347 -1.38593,-4.32826 -3.63171,-3.91225 -0.95049,0.17607 -2.05557,1.28234 -2.34144,2.34396 -0.68557,2.54603 1.94125,4.70722 4.33866,3.56958 z"
               style="fill:#afafaf" />
            <path
               inkscape:connector-curvature="0"
               id="path3472"
               d="m 421.72895,560.60116 c -1.24244,-0.43866 -2.59785,-1.86872 -2.97506,-3.13893 -0.37908,-1.27649 -0.37934,-1.77542 -0.002,-3.04743 0.36295,-1.22218 1.48627,-2.51503 2.69265,-3.09903 1.15721,-0.56019 1.31085,-0.85965 0.35165,-0.68537 -2.20878,0.4013 -2.19223,0.40238 -2.19223,-0.14276 0,-0.3251 0.17202,-0.6141 0.48924,-0.82195 0.41871,-0.27436 0.60144,-0.28694 1.26767,-0.0873 0.67186,0.20129 0.82704,0.18925 1.13332,-0.0879 0.19518,-0.17663 0.55453,-0.31208 0.79856,-0.301 0.24403,0.0111 1.02798,0.0437 1.74212,0.0724 1.17333,0.0472 1.35816,0.11199 1.91839,0.67222 0.34097,0.34098 0.5269,0.61996 0.41318,0.61996 -0.11373,0 -0.36333,-0.17299 -0.55467,-0.38442 -0.4423,-0.48873 -0.67273,-0.48873 -0.67273,0 0,0.4338 -0.19588,0.46678 -1.1489,0.19346 -0.5239,-0.15026 -0.72704,-0.12977 -0.95291,0.0961 -0.25461,0.25461 -0.23823,0.28707 0.14493,0.28707 0.71515,0 2.2111,0.8729 3.04342,1.77586 3.57855,3.88227 -0.48176,9.84978 -5.49703,8.07908 z m 3.18538,-1.90268 c 1.84903,-0.87743 2.30726,-3.33469 0.91021,-4.88106 -0.90835,-1.00543 -2.06955,-1.31839 -3.23719,-0.87246 -1.01748,0.38858 -1.74306,1.18636 -2.02236,2.22358 -0.66936,2.48582 1.99416,4.64754 4.34934,3.52994 z m 7.68153,1.75195 c -1.84982,-0.70677 -2.97989,-2.21645 -3.13853,-4.19284 -0.33753,-4.20486 4.76551,-6.86671 7.79834,-4.06779 0.58815,0.5428 0.66942,0.70752 0.49177,0.99684 -0.31977,0.5208 -0.73893,0.51719 -1.55181,-0.0134 -1.40589,-0.9176 -2.86672,-0.83858 -4.12875,0.22335 -1.73141,1.45688 -1.37923,4.40871 0.64948,5.44368 1.08031,0.55113 2.53367,0.43633 3.57025,-0.28202 0.80629,-0.55876 1.29271,-0.52615 1.49144,0.1 0.41206,1.29827 -3.20284,2.54841 -5.18219,1.79215 z m 9.64042,0.0694 c -0.97846,-0.27352 -2.52293,-1.70111 -2.93019,-2.70845 -1.30041,-3.21652 0.98942,-6.7084 4.42025,-6.74068 2.13803,-0.0201 4.01103,1.35986 4.61749,3.40203 0.40865,1.37609 0.39601,5.55222 -0.0181,5.96629 -0.43531,0.43532 -0.76667,0.37408 -1.20082,-0.22192 l -0.38168,-0.52396 -0.92874,0.46383 c -1.04291,0.52086 -2.48859,0.66746 -3.57825,0.36286 z m 2.80277,-1.57861 c 1.27917,-0.53447 2.22916,-2.28425 1.97518,-3.63807 -0.27432,-1.46226 -1.85187,-2.82704 -3.26777,-2.82704 -2.06551,0 -3.83108,2.38642 -3.19392,4.31704 0.64382,1.9508 2.65456,2.91351 4.48651,2.14807 z"
               style="fill:#c78ab7" />
            <path
               inkscape:connector-curvature="0"
               id="path3470"
               d="m 422.66105,560.72018 c -1.20772,-0.17915 -1.91669,-0.58179 -2.80863,-1.59509 -2.26106,-2.56869 -1.29819,-6.52535 1.91429,-7.8662 0.39643,-0.16547 0.72078,-0.40308 0.72078,-0.52802 0,-0.15774 -0.22026,-0.18697 -0.72078,-0.0956 -2.1697,0.39595 -2.16234,0.39645 -2.16234,-0.14761 0,-0.3251 0.17201,-0.6141 0.48923,-0.82195 0.41871,-0.27436 0.60144,-0.28694 1.26768,-0.0873 0.67185,0.20129 0.82704,0.18925 1.13331,-0.0879 0.19518,-0.17663 0.55453,-0.31208 0.79856,-0.301 0.24403,0.0111 1.02799,0.0437 1.74212,0.0724 1.17333,0.0472 1.35816,0.11199 1.91839,0.67222 0.34098,0.34098 0.52691,0.61996 0.41318,0.61996 -0.11372,0 -0.36332,-0.17299 -0.55466,-0.38442 -0.4423,-0.48873 -0.67273,-0.48873 -0.67273,0 0,0.4338 -0.19588,0.46678 -1.1489,0.19346 -0.5239,-0.15026 -0.72704,-0.12977 -0.95291,0.0961 -0.25462,0.25461 -0.2491,0.28707 0.0488,0.28707 0.45527,0 2.05606,0.8267 2.77948,1.43542 2.01233,1.69327 2.09747,5.17505 0.17562,7.18229 -1.10648,1.15565 -2.60505,1.61962 -4.38051,1.35625 z m 2.35031,-2.01357 c 2.27457,-1.16167 2.21923,-4.62648 -0.0914,-5.72295 -3.07583,-1.45957 -6.02062,2.4955 -3.71825,4.99389 1.05492,1.14473 2.46675,1.41491 3.80966,0.72906 z m 7.5845,1.74382 c -1.84982,-0.70677 -2.97989,-2.21645 -3.13853,-4.19284 -0.33753,-4.20486 4.76551,-6.86671 7.79834,-4.06779 0.58815,0.5428 0.66942,0.70752 0.49177,0.99684 -0.31977,0.5208 -0.73893,0.51719 -1.55181,-0.0134 -1.40589,-0.9176 -2.86672,-0.83858 -4.12875,0.22335 -1.73141,1.45688 -1.37923,4.40871 0.64948,5.44368 1.08031,0.55113 2.53367,0.43633 3.57025,-0.28202 0.80629,-0.55876 1.29271,-0.52615 1.49144,0.1 0.41206,1.29827 -3.20284,2.54841 -5.18219,1.79215 z m 9.64042,0.0694 c -0.97846,-0.27352 -2.52293,-1.70111 -2.93019,-2.70845 -1.30041,-3.21652 0.98942,-6.7084 4.42025,-6.74068 2.13803,-0.0201 4.01103,1.35986 4.61749,3.40203 0.40865,1.37609 0.39601,5.55222 -0.0181,5.96629 -0.43531,0.43532 -0.76667,0.37408 -1.20082,-0.22192 l -0.38168,-0.52396 -0.92874,0.46383 c -1.04291,0.52086 -2.48859,0.66746 -3.57825,0.36286 z m 2.80277,-1.57861 c 1.27917,-0.53447 2.22916,-2.28425 1.97518,-3.63807 -0.27432,-1.46226 -1.85187,-2.82704 -3.26777,-2.82704 -2.06551,0 -3.83108,2.38642 -3.19392,4.31704 0.64382,1.9508 2.65456,2.91351 4.48651,2.14807 z"
               style="fill:#c17bae" />
            <path
               inkscape:connector-curvature="0"
               id="path3468"
               d="m 422.10307,560.52662 c -1.97567,-0.59493 -3.33708,-2.46816 -3.33644,-4.59078 7.7e-4,-2.65666 1.91746,-4.6989 4.63046,-4.93383 1.71432,-0.14846 3.39651,0.87267 4.38413,2.66124 1.29796,2.35061 0.35691,5.26934 -2.10838,6.53933 -0.88399,0.45539 -2.61252,0.61229 -3.56977,0.32404 z m 2.75412,-1.58542 c 1.27916,-0.53447 2.22915,-2.28425 1.97518,-3.63807 -0.27433,-1.46226 -1.85188,-2.82704 -3.26778,-2.82704 -2.0655,0 -3.83107,2.38642 -3.19391,4.31704 0.64382,1.9508 2.65455,2.91351 4.48651,2.14807 z m 7.73867,1.50923 c -1.84982,-0.70677 -2.97989,-2.21645 -3.13853,-4.19284 -0.33753,-4.20486 4.76551,-6.86671 7.79834,-4.06779 0.58815,0.5428 0.66942,0.70752 0.49177,0.99684 -0.31977,0.5208 -0.73893,0.51719 -1.55181,-0.0134 -1.40589,-0.9176 -2.86672,-0.83858 -4.12875,0.22335 -1.73141,1.45688 -1.37923,4.40871 0.64948,5.44368 1.08031,0.55113 2.53367,0.43633 3.57025,-0.28202 0.80629,-0.55876 1.29271,-0.52615 1.49144,0.1 0.41206,1.29827 -3.20284,2.54841 -5.18219,1.79215 z m 9.64042,0.0694 c -0.97846,-0.27352 -2.52293,-1.70111 -2.93019,-2.70845 -1.30041,-3.21652 0.98942,-6.7084 4.42025,-6.74068 2.13803,-0.0201 4.01103,1.35986 4.61749,3.40203 0.40865,1.37609 0.39601,5.55222 -0.0181,5.96629 -0.43531,0.43532 -0.76667,0.37408 -1.20082,-0.22192 l -0.38168,-0.52396 -0.92874,0.46383 c -1.04291,0.52086 -2.48859,0.66746 -3.57825,0.36286 z m 2.80277,-1.57861 c 1.27917,-0.53447 2.22916,-2.28425 1.97518,-3.63807 -0.27432,-1.46226 -1.85187,-2.82704 -3.26777,-2.82704 -2.06551,0 -3.83108,2.38642 -3.19392,4.31704 0.64382,1.9508 2.65456,2.91351 4.48651,2.14807 z m -25.43468,-8.45274 c 0,-0.32598 0.17167,-0.6147 0.48923,-0.82277 0.41871,-0.27436 0.60144,-0.28694 1.26768,-0.0873 0.67185,0.20129 0.82704,0.18925 1.13331,-0.0879 0.19518,-0.17663 0.55453,-0.31208 0.79856,-0.301 0.24403,0.0111 1.02799,0.0437 1.74212,0.0724 1.17333,0.0472 1.35816,0.11199 1.91839,0.67222 0.34098,0.34098 0.52691,0.61996 0.41318,0.61996 -0.11372,0 -0.36332,-0.17299 -0.55466,-0.38442 -0.4423,-0.48873 -0.67273,-0.48873 -0.67273,0 0,0.43318 -0.19618,0.46669 -1.14272,0.19523 -0.51569,-0.1479 -0.72908,-0.12637 -0.97773,0.0987 -0.21968,0.19881 -0.66924,0.27566 -1.45336,0.24844 -0.62441,-0.0217 -1.54614,0.0322 -2.04828,0.11968 -0.89683,0.15627 -0.91299,0.15019 -0.91299,-0.34313 z"
               style="fill:#969696" />
            <path
               inkscape:connector-curvature="0"
               id="path3466"
               d="m 422.10307,560.52662 c -1.97567,-0.59493 -3.33708,-2.46816 -3.33644,-4.59078 7.7e-4,-2.65666 1.91746,-4.6989 4.63046,-4.93383 1.71432,-0.14846 3.39651,0.87267 4.38413,2.66124 1.29796,2.35061 0.35691,5.26934 -2.10838,6.53933 -0.88399,0.45539 -2.61252,0.61229 -3.56977,0.32404 z m 2.75412,-1.58542 c 1.27916,-0.53447 2.22915,-2.28425 1.97518,-3.63807 -0.27433,-1.46226 -1.85188,-2.82704 -3.26778,-2.82704 -2.0655,0 -3.83107,2.38642 -3.19391,4.31704 0.64382,1.9508 2.65455,2.91351 4.48651,2.14807 z m 7.89184,1.3645 c -2.02832,-0.80487 -3.14983,-2.41385 -3.14983,-4.51892 0,-2.92245 3.07408,-5.20719 5.88275,-4.37221 1.17832,0.35029 2.3064,1.24975 2.13328,1.70091 -0.17057,0.44449 -0.5757,0.40265 -1.37888,-0.14241 -1.40826,-0.95567 -3.17413,-0.81069 -4.37908,0.35953 -3.07319,2.98466 0.74166,7.76973 4.36327,5.47297 0.85001,-0.53906 0.95673,-0.56365 1.23568,-0.28471 1.04657,1.04657 -2.84711,2.52295 -4.70719,1.78484 z m 9.72687,0.0635 c -2.1017,-0.63931 -3.3125,-2.29751 -3.31371,-4.53813 -0.002,-4.05918 4.9346,-6.10376 7.80564,-3.23272 1.14202,1.14202 1.35521,1.84659 1.43332,4.73693 0.0728,2.69495 -0.0347,3.21351 -0.66657,3.21351 -0.14824,0 -0.35175,-0.21624 -0.45223,-0.48053 -0.22823,-0.6003 -0.47278,-0.60056 -1.75884,-0.002 -1.03001,0.4795 -2.113,0.5871 -3.04761,0.30281 z m 3.10085,-1.52437 c 2.39851,-1.52108 2.11878,-5.0116 -0.49684,-6.19971 -0.9827,-0.44638 -1.72412,-0.44638 -2.70682,0 -1.58362,0.71934 -2.4484,2.44089 -2.02785,4.0369 0.63533,2.41108 3.18072,3.46339 5.23151,2.16281 z m -25.89066,-8.16293 c -0.16377,-0.42678 0.24696,-1.06767 0.76806,-1.19846 0.24985,-0.0627 0.70244,0.0143 1.00575,0.17117 0.50166,0.25941 0.59095,0.25323 0.9882,-0.0684 0.36596,-0.29634 0.72209,-0.34496 2.198,-0.30012 1.12128,0.0341 1.78826,0.13447 1.83554,0.2763 0.0408,0.12253 -0.0194,0.22278 -0.13397,0.22278 -0.11452,0 -0.20822,0.12464 -0.20822,0.27697 0,0.42584 -0.25925,0.49544 -1.04117,0.27954 -0.57034,-0.15748 -0.8093,-0.13728 -1.16967,0.0988 -0.29341,0.19225 -0.81302,0.28143 -1.47558,0.25325 -0.56248,-0.0239 -1.39009,0.0289 -1.83915,0.1174 -0.65458,0.129 -0.83853,0.10338 -0.92779,-0.12922 z"
               style="fill:#8d8e8e" />
            <path
               inkscape:connector-curvature="0"
               id="path3464"
               d="m 422.10307,560.52662 c -1.97567,-0.59493 -3.33708,-2.46816 -3.33644,-4.59078 7.7e-4,-2.65666 1.91746,-4.6989 4.63046,-4.93383 1.71432,-0.14846 3.39651,0.87267 4.38413,2.66124 1.29796,2.35061 0.35691,5.26934 -2.10838,6.53933 -0.88399,0.45539 -2.61252,0.61229 -3.56977,0.32404 z m 2.75412,-1.58542 c 1.27916,-0.53447 2.22915,-2.28425 1.97518,-3.63807 -0.27433,-1.46226 -1.85188,-2.82704 -3.26778,-2.82704 -2.0655,0 -3.83107,2.38642 -3.19391,4.31704 0.64382,1.9508 2.65455,2.91351 4.48651,2.14807 z m -5.18606,-8.29825 c -0.15442,-0.40241 0.46918,-1.04998 1.01113,-1.04998 0.24293,0 0.65254,0.0961 0.91025,0.21349 0.39125,0.17826 0.56461,0.14247 1.05073,-0.21693 0.44711,-0.33057 0.70837,-0.39638 1.1262,-0.28369 0.29921,0.0807 1.01333,0.15162 1.58692,0.15761 0.57359,0.006 0.94118,0.0448 0.81688,0.0862 -0.1243,0.0414 -0.226,0.2387 -0.226,0.43838 0,0.30996 -0.14755,0.36289 -1.00909,0.36195 -1.72248,-0.002 -3.28291,0.13832 -4.08443,0.36696 -0.98935,0.28222 -1.04729,0.2786 -1.18259,-0.074 z"
               style="fill:#a7508f" />
            <path
               inkscape:connector-curvature="0"
               id="path3462"
               d="m 419.67113,550.64295 c -0.15442,-0.40241 0.46918,-1.04998 1.01113,-1.04998 0.24293,0 0.65254,0.0961 0.91025,0.21349 0.39125,0.17826 0.56461,0.14247 1.05073,-0.21693 0.44711,-0.33057 0.70837,-0.39638 1.1262,-0.28369 0.29921,0.0807 1.01333,0.15162 1.58692,0.15761 0.57359,0.006 0.94118,0.0448 0.81688,0.0862 -0.1243,0.0414 -0.226,0.2387 -0.226,0.43838 0,0.30996 -0.14755,0.36289 -1.00909,0.36195 -1.72248,-0.002 -3.28291,0.13832 -4.08443,0.36696 -0.98935,0.28222 -1.04729,0.2786 -1.18259,-0.074 z"
               style="fill:#5f5f5f" />
            <path
               inkscape:connector-curvature="0"
               id="path3460"
               d="m 419.79658,550.47761 c 0,-0.51156 0.83184,-0.92425 1.41561,-0.7023 0.89377,0.33981 0.6765,0.58038 -0.79094,0.87572 -0.49104,0.0988 -0.62467,0.0617 -0.62467,-0.17342 z m 2.69091,-0.36568 c 0,-0.38197 0.41293,-0.71117 0.89204,-0.71117 0.54213,0 0.74934,0.31616 0.44643,0.68115 -0.29088,0.35049 -1.33847,0.37398 -1.33847,0.03 z m 2.10196,-0.2455 c -0.2218,-0.26726 -0.17512,-0.29572 0.39414,-0.24026 0.35515,0.0346 0.68122,0.17102 0.7246,0.30316 0.11606,0.35352 -0.81666,0.30108 -1.11873,-0.0629 z"
               style="fill:#1a1a1a" />
            <path
               d="m 505.61893,560.77686 1.61481,-11.36551 0.18543,0 4.62038,9.32574 4.57402,-9.32574 0.18543,0 1.63027,11.36551 -1.12033,0 -1.1126,-8.12816 -4.01772,8.12816 -0.28587,0 -4.07181,-8.18997 -1.10487,8.18997 -1.09714,0 z"
               style="font-style:normal;font-variant:normal;font-weight:normal;font-stretch:normal;font-size:medium;line-height:125%;font-family:'Century Gothic';-inkscape-font-specification:'Century Gothic';letter-spacing:0px;word-spacing:0px;fill:#b3b3b3;fill-opacity:1;stroke:none;stroke-width:1px;stroke-linecap:butt;stroke-linejoin:miter;stroke-opacity:1"
               id="path3429"
               inkscape:connector-curvature="0" />
            <path
               d="m 520.9867,548.90913 q 0.37086,0 0.63356,0.2627 0.2627,0.2627 0.2627,0.63356 0,0.36314 -0.2627,0.62584 -0.2627,0.2627 -0.63356,0.2627 -0.36314,0 -0.62584,-0.2627 -0.2627,-0.2627 -0.2627,-0.62584 0,-0.37086 0.2627,-0.63356 0.2627,-0.2627 0.62584,-0.2627 z m -0.54085,3.46142 1.08942,0 0,8.40631 -1.08942,0 0,-8.40631 z"
               style="font-style:normal;font-variant:normal;font-weight:normal;font-stretch:normal;font-size:medium;line-height:125%;font-family:'Century Gothic';-inkscape-font-specification:'Century Gothic';letter-spacing:0px;word-spacing:0px;fill:#b3b3b3;fill-opacity:1;stroke:none;stroke-width:1px;stroke-linecap:butt;stroke-linejoin:miter;stroke-opacity:1"
               id="path3431"
               inkscape:connector-curvature="0" />
            <path
               d="m 531.0619,552.37055 1.08942,0 0,6.69878 q 0,1.76934 -0.30906,2.58833 -0.42495,1.15896 -1.47574,1.7848 -1.05078,0.62583 -2.52652,0.62583 -1.0817,0 -1.94705,-0.30905 -0.85763,-0.30133 -1.39848,-0.819 -0.54084,-0.50994 -0.9967,-1.49892 l 1.17441,0 q 0.47904,0.83445 1.23622,1.23623 0.75719,0.40177 1.87751,0.40177 1.10488,0 1.86206,-0.41723 0.76491,-0.4095 1.08942,-1.03533 0.32451,-0.62584 0.32451,-2.01659 l 0,-0.43268 q -0.61039,0.77264 -1.49119,1.18987 -0.88081,0.4095 -1.86979,0.4095 -1.15895,0 -2.17884,-0.57176 -1.01988,-0.57948 -1.57618,-1.553 -0.5563,-0.97352 -0.5563,-2.14021 0,-1.16668 0.57948,-2.17111 0.57948,-1.01216 1.59936,-1.59936 1.02761,-0.58721 2.16339,-0.58721 0.94262,0 1.75389,0.39405 0.81899,0.38632 1.57618,1.28258 l 0,-1.46029 z m -3.191,0.82673 q -0.91944,0 -1.70753,0.44813 -0.78809,0.4404 -1.23622,1.22849 -0.44813,0.78036 -0.44813,1.69208 0,1.38302 0.92717,2.28701 0.92716,0.90398 2.4029,0.90398 1.49119,0 2.39518,-0.89626 0.91171,-0.89626 0.91171,-2.35654 0,-0.95035 -0.41722,-1.69208 -0.41723,-0.74946 -1.18214,-1.18214 -0.76491,-0.43267 -1.64572,-0.43267 z"
               style="font-style:normal;font-variant:normal;font-weight:normal;font-stretch:normal;font-size:medium;line-height:125%;font-family:'Century Gothic';-inkscape-font-specification:'Century Gothic';letter-spacing:0px;word-spacing:0px;fill:#b3b3b3;fill-opacity:1;stroke:none;stroke-width:1px;stroke-linecap:butt;stroke-linejoin:miter;stroke-opacity:1"
               id="path3433"
               inkscape:connector-curvature="0" />
            <path
               d="m 534.07519,552.37055 1.10487,0 0,1.2285 q 0.49449,-0.72628 1.04306,-1.0817 0.54857,-0.36314 1.1435,-0.36314 0.44814,0 0.95808,0.28588 l -0.56403,0.91171 q -0.33996,-0.1468 -0.57175,-0.1468 -0.54085,0 -1.04306,0.44813 -0.50222,0.44041 -0.76491,1.3753 -0.20089,0.71855 -0.20089,2.90512 l 0,2.84331 -1.10487,0 0,-8.40631 z"
               style="font-style:normal;font-variant:normal;font-weight:normal;font-stretch:normal;font-size:medium;line-height:125%;font-family:'Century Gothic';-inkscape-font-specification:'Century Gothic';letter-spacing:0px;word-spacing:0px;fill:#b3b3b3;fill-opacity:1;stroke:none;stroke-width:1px;stroke-linecap:butt;stroke-linejoin:miter;stroke-opacity:1"
               id="path3435"
               inkscape:connector-curvature="0" />
            <path
               d="m 547.61953,552.37055 0,8.40631 -1.06624,0 0,-1.44484 q -0.67992,0.82672 -1.52982,1.24395 -0.84217,0.41722 -1.8466,0.41722 -1.7848,0 -3.05192,-1.2903 -1.25941,-1.29803 -1.25941,-3.15236 0,-1.8157 1.27486,-3.10601 1.27485,-1.29031 3.06737,-1.29031 1.03534,0 1.86979,0.44041 0.84217,0.4404 1.47573,1.32121 l 0,-1.54528 1.06624,0 z m -4.32677,0.82673 q -0.90399,0 -1.6689,0.44813 -0.76491,0.4404 -1.22077,1.24394 -0.44813,0.80355 -0.44813,1.69981 0,0.88853 0.45586,1.6998 0.45586,0.81127 1.22077,1.26713 0.77264,0.44813 1.65344,0.44813 0.88854,0 1.68436,-0.44813 0.79581,-0.44813 1.22076,-1.21304 0.43268,-0.76492 0.43268,-1.72299 0,-1.46028 -0.9658,-2.44153 -0.95807,-0.98125 -2.36427,-0.98125 z"
               style="font-style:normal;font-variant:normal;font-weight:normal;font-stretch:normal;font-size:medium;line-height:125%;font-family:'Century Gothic';-inkscape-font-specification:'Century Gothic';letter-spacing:0px;word-spacing:0px;fill:#b3b3b3;fill-opacity:1;stroke:none;stroke-width:1px;stroke-linecap:butt;stroke-linejoin:miter;stroke-opacity:1"
               id="path3437"
               inkscape:connector-curvature="0" />
            <path
               d="m 551.00369,549.24909 1.08942,0 0,3.12146 1.71526,0 0,0.92717 -1.71526,0 0,7.47914 -1.08942,0 0,-7.47914 -1.47574,0 0,-0.92717 1.47574,0 0,-3.12146 z"
               style="font-style:normal;font-variant:normal;font-weight:normal;font-stretch:normal;font-size:medium;line-height:125%;font-family:'Century Gothic';-inkscape-font-specification:'Century Gothic';letter-spacing:0px;word-spacing:0px;fill:#b3b3b3;fill-opacity:1;stroke:none;stroke-width:1px;stroke-linecap:butt;stroke-linejoin:miter;stroke-opacity:1"
               id="path3439"
               inkscape:connector-curvature="0" />
            <path
               d="m 555.84813,548.90913 q 0.37087,0 0.63356,0.2627 0.2627,0.2627 0.2627,0.63356 0,0.36314 -0.2627,0.62584 -0.26269,0.2627 -0.63356,0.2627 -0.36314,0 -0.62584,-0.2627 -0.26269,-0.2627 -0.26269,-0.62584 0,-0.37086 0.26269,-0.63356 0.2627,-0.2627 0.62584,-0.2627 z m -0.54085,3.46142 1.08942,0 0,8.40631 -1.08942,0 0,-8.40631 z"
               style="font-style:normal;font-variant:normal;font-weight:normal;font-stretch:normal;font-size:medium;line-height:125%;font-family:'Century Gothic';-inkscape-font-specification:'Century Gothic';letter-spacing:0px;word-spacing:0px;fill:#b3b3b3;fill-opacity:1;stroke:none;stroke-width:1px;stroke-linecap:butt;stroke-linejoin:miter;stroke-opacity:1"
               id="path3441"
               inkscape:connector-curvature="0" />
            <path
               d="m 562.6628,552.15421 q 1.93932,0 3.21417,1.40621 1.15896,1.28257 1.15896,3.03646 0,1.76162 -1.2285,3.08283 -1.22077,1.31348 -3.14463,1.31348 -1.9316,0 -3.16009,-1.31348 -1.22077,-1.32121 -1.22077,-3.08283 0,-1.74616 1.15895,-3.02874 1.27486,-1.41393 3.22191,-1.41393 z m 0,1.05852 q -1.3444,0 -2.31019,0.9967 -0.9658,0.9967 -0.9658,2.41063 0,0.91172 0.4404,1.69981 0.44041,0.78809 1.18987,1.22076 0.74946,0.42496 1.64572,0.42496 0.89626,0 1.64571,-0.42496 0.74946,-0.43267 1.18987,-1.22076 0.4404,-0.78809 0.4404,-1.69981 0,-1.41393 -0.97352,-2.41063 -0.9658,-0.9967 -2.30246,-0.9967 z"
               style="font-style:normal;font-variant:normal;font-weight:normal;font-stretch:normal;font-size:medium;line-height:125%;font-family:'Century Gothic';-inkscape-font-specification:'Century Gothic';letter-spacing:0px;word-spacing:0px;fill:#b3b3b3;fill-opacity:1;stroke:none;stroke-width:1px;stroke-linecap:butt;stroke-linejoin:miter;stroke-opacity:1"
               id="path3443"
               inkscape:connector-curvature="0" />
            <path
               d="m 569.03706,552.37055 1.08169,0 0,1.50665 q 0.64902,-0.86536 1.43711,-1.29031 0.78809,-0.43268 1.71526,-0.43268 0.94262,0 1.6689,0.47904 0.734,0.47904 1.08169,1.29031 0.34769,0.81127 0.34769,2.52652 l 0,4.32678 -1.07397,0 0,-4.01 q 0,-1.45256 -0.12362,-1.93932 -0.19316,-0.83445 -0.72628,-1.25167 -0.53312,-0.42495 -1.39075,-0.42495 -0.98125,0 -1.76162,0.64901 -0.77263,0.64902 -1.01988,1.60709 -0.15453,0.62584 -0.15453,2.28701 l 0,3.08283 -1.08169,0 0,-8.40631 z"
               style="font-style:normal;font-variant:normal;font-weight:normal;font-stretch:normal;font-size:medium;line-height:125%;font-family:'Century Gothic';-inkscape-font-specification:'Century Gothic';letter-spacing:0px;word-spacing:0px;fill:#b3b3b3;fill-opacity:1;stroke:none;stroke-width:1px;stroke-linecap:butt;stroke-linejoin:miter;stroke-opacity:1"
               id="path3445"
               inkscape:connector-curvature="0" />
          </g>
        </g>
      </g>
    </g>
  </g>
</svg>
